<?xml version="1.0" encoding="UTF-8" standalone="no"?>
<svg
   xmlns:dc="http://purl.org/dc/elements/1.1/"
   xmlns:cc="http://creativecommons.org/ns#"
   xmlns:rdf="http://www.w3.org/1999/02/22-rdf-syntax-ns#"
   xmlns:svg="http://www.w3.org/2000/svg"
   xmlns="http://www.w3.org/2000/svg"
   id="svg20626"
   version="1.1"
   viewBox="0 0 105.83334 47.625"
   height="180"
   width="400">
  <defs
     id="defs20620">
    <clipPath
       id="clip6">
      <path
         id="path16395"
         d="m 548,756 h 4.75781 v 5 H 548 Z m 0,0" />
    </clipPath>
    <clipPath
       id="clip5">
      <path
         id="path16392"
         d="m 487.55859,746 h 65.19922 v 9 h -65.19922 z m 0,0" />
    </clipPath>
    <clipPath
       id="clip4">
      <path
         id="path16389"
         d="m 487.55859,725 h 65.19922 v 22 h -65.19922 z m 0,0" />
    </clipPath>
    <clipPath
       id="clip3">
      <path
         id="path16386"
         d="m 487.55859,725 h 65.19922 v 30 h -65.19922 z m 0,0" />
    </clipPath>
    <clipPath
       id="clip2">
      <path
         id="path16383"
         d="m 487.55859,724.81641 h 65.19922 V 737 h -65.19922 z m 0,0" />
    </clipPath>
    <clipPath
       id="clip1">
      <path
         id="path16380"
         d="m 487.55859,724.81641 h 65.19922 v 39.14843 h -65.19922 z m 0,0" />
    </clipPath>
  </defs>
  <metadata
     id="metadata20623">
    <rdf:RDF>
      <cc:Work
         rdf:about="">
        <dc:format>image/svg+xml</dc:format>
        <dc:type
           rdf:resource="http://purl.org/dc/dcmitype/StillImage" />
        <dc:title></dc:title>
      </cc:Work>
    </rdf:RDF>
  </metadata>
  <g
     transform="translate(-27.119314,-84.256596)"
     id="layer1">
    <g
       clip-path="url(#clip3)"
       id="g16488"
       style="clip-rule:nonzero;fill:#ffffff;fill-opacity:1"
       transform="matrix(1.6396352,0,0,1.6404736,-772.63338,-1105.3559)">
      <path
         style="fill:#ffffff;fill-opacity:1;fill-rule:nonzero;stroke:none"
         d="m 552.28906,747.22656 v 6.89453 h -64.54297 v -28.88672 h 64.54688 v 21.17579 z m 0,0"
         id="path16486" />
    </g>
    <g
       clip-path="url(#clip4)"
       id="g16492"
       style="clip-rule:nonzero;fill:#f0af00;fill-opacity:1"
       transform="matrix(1.6396352,0,0,1.6404736,-772.63338,-1105.3559)">
      <path
         style="fill:#f0af00;fill-opacity:1;fill-rule:nonzero;stroke:none"
         d="m 520.02344,744.20703 c 12.4414,0.008 23.75781,0.85547 32.26953,2.23828 v -21.28125 h -64.54688 v 21.28125 c 8.50782,-1.38281 19.82813,-2.23047 32.26953,-2.23828 h 0.008"
         id="path16490" />
    </g>
    <g
       clip-path="url(#clip5)"
       id="g16496"
       style="clip-rule:nonzero;fill:#f0af00;fill-opacity:1"
       transform="matrix(1.6396352,0,0,1.6404736,-772.63338,-1105.3559)">
      <path
         style="fill:#f0af00;fill-opacity:1;fill-rule:nonzero;stroke:none"
         d="m 520.01953,746.53906 c 11.64844,0 22.63672,0.26172 32.26953,0.72656 v 6.92969 h -64.54297 v -6.92969 c 9.63672,-0.46484 20.625,-0.72656 32.27344,-0.72656"
         id="path16494" />
    </g>
    <path
       style="fill:#000000;fill-opacity:1;fill-rule:nonzero;stroke:none;stroke-width:1.64047348"
       d="m 36.595421,104.442 c -0.76897,0 -1.505904,-0.0962 -2.210785,-0.22414 v -0.97407 c 0.762562,0.15392 1.409776,0.28831 2.050596,0.28831 0.916351,0 1.839115,-0.21809 1.839115,-0.91636 0,-0.8395 -1.332885,-0.90994 -1.9737,-1.06377 -0.909939,-0.22414 -1.954463,-0.55751 -1.954463,-1.755808 0,-1.422578 1.384153,-1.826305 2.684999,-1.826305 0.929163,0 1.589206,0.108814 2.095441,0.179496 v 0.929196 c -0.602368,-0.102305 -1.249582,-0.198563 -1.871155,-0.198563 -0.634408,0 -1.653305,0.09626 -1.653305,0.82666 0,1.352084 3.966616,0.384564 3.966616,2.761874 0,1.21755 -1.044524,1.97371 -2.973359,1.97371"
       id="path16498" />
    <path
       style="fill:#000000;fill-opacity:1;fill-rule:nonzero;stroke:none;stroke-width:1.64047348"
       d="m 36.595421,104.442 c -0.76897,0 -1.505904,-0.0962 -2.210785,-0.22414 v -0.97407 c 0.762562,0.15392 1.409776,0.28831 2.050596,0.28831 0.916351,0 1.839115,-0.21809 1.839115,-0.91636 0,-0.8395 -1.332885,-0.90994 -1.9737,-1.06377 -0.909939,-0.22414 -1.954463,-0.55751 -1.954463,-1.755808 0,-1.422578 1.384153,-1.826305 2.684999,-1.826305 0.929163,0 1.589206,0.108814 2.095441,0.179496 v 0.929196 c -0.602368,-0.102305 -1.249582,-0.198563 -1.871155,-0.198563 -0.634408,0 -1.653305,0.09626 -1.653305,0.82666 0,1.352084 3.966616,0.384564 3.966616,2.761874 0,1.21755 -1.044524,1.97371 -2.973359,1.97371"
       id="path16500" />
    <path
       style="fill:#000000;fill-opacity:1;fill-rule:nonzero;stroke:none;stroke-width:1.64047348"
       d="m 45.611627,101.17387 c 0,1.775 -0.980444,2.39023 -2.197987,2.39023 -0.294774,0 -0.557498,0 -1.17909,-0.0832 v -4.530553 c 0.531876,-0.0465 0.743347,-0.0465 0.993256,-0.0465 1.480267,0 2.383821,0.660044 2.383821,2.268483 m 1.332885,0 c 0,-0.96765 -0.313979,-2.089033 -1.37775,-2.71062 -0.698482,-0.384568 -1.493078,-0.467807 -2.441483,-0.467807 -0.570328,0 -1.409775,0.05766 -2.133894,0.09626 v 8.823957 h 1.243165 v -2.5248 c 0.647214,0.0832 0.993256,0.0962 1.268806,0.0962 0.704895,0 1.403377,-0.14089 2.101859,-0.54467 0.916351,-0.53826 1.339297,-1.62123 1.339297,-2.76829"
       id="path16502" />
    <path
       style="fill:#000000;fill-opacity:1;fill-rule:nonzero;stroke:none;stroke-width:1.64047348"
       d="m 45.611627,101.17387 c 0,1.775 -0.980444,2.39023 -2.197987,2.39023 -0.294774,0 -0.557498,0 -1.17909,-0.0832 v -4.530553 c 0.531876,-0.0465 0.743347,-0.0465 0.993256,-0.0465 1.480267,0 2.383821,0.660044 2.383821,2.268483 m 1.332885,0 c 0,-0.96765 -0.313979,-2.089033 -1.37775,-2.71062 -0.698482,-0.384568 -1.493078,-0.467807 -2.441483,-0.467807 -0.570328,0 -1.409775,0.05766 -2.133894,0.09626 v 8.823957 h 1.243165 v -2.5248 c 0.647214,0.0832 0.993256,0.0962 1.268806,0.0962 0.704895,0 1.403377,-0.14089 2.101859,-0.54467 0.916351,-0.53826 1.339297,-1.62123 1.339297,-2.76829"
       id="path16504" />
    <path
       style="fill:#000000;fill-opacity:1;fill-rule:nonzero;stroke:none;stroke-width:1.64047348"
       d="m 48.597797,98.097969 h 1.236753 v 6.209451 h -1.236753 z m 0,-2.659381 h 1.236753 v 1.147056 h -1.236753 z m 0,0"
       id="path16506" />
    <path
       style="fill:#000000;fill-opacity:1;fill-rule:nonzero;stroke:none;stroke-width:1.64047348"
       d="m 48.597797,98.097969 h 1.236753 v 6.209451 h -1.236753 z m 0,-2.659381 h 1.236753 v 1.147056 h -1.236753 z m 0,0"
       id="path16508" />
    <path
       style="fill:#000000;fill-opacity:1;fill-rule:nonzero;stroke:none;stroke-width:1.64047348"
       d="m 56.332368,100.75093 h -3.479589 c 0.0386,-1.21755 0.621573,-1.941673 1.73019,-1.941673 1.300831,0 1.723777,0.813825 1.749399,1.941673 m 1.403378,0.83945 V 101.283 c 0,-1.999333 -0.909954,-3.313004 -3.152777,-3.313004 -1.678927,0 -3.095115,0.922779 -3.095115,3.107934 0,2.12108 1.268792,3.37067 3.562898,3.37067 0.724118,0 1.396959,-0.0325 2.172346,-0.22414 v -0.83949 c -0.62799,0.10881 -1.17909,0.1795 -1.775041,0.1795 -0.941992,0 -2.396633,-0.0576 -2.608094,-1.97372 z m 0,0"
       id="path16510" />
    <path
       style="fill:#000000;fill-opacity:1;fill-rule:nonzero;stroke:none;stroke-width:1.64047348"
       d="m 56.332368,100.75093 h -3.479589 c 0.0386,-1.21755 0.621573,-1.941673 1.73019,-1.941673 1.300831,0 1.723777,0.813825 1.749399,1.941673 m 1.403378,0.83945 V 101.283 c 0,-1.999333 -0.909954,-3.313004 -3.152777,-3.313004 -1.678927,0 -3.095115,0.922779 -3.095115,3.107934 0,2.12108 1.268792,3.37067 3.562898,3.37067 0.724118,0 1.396959,-0.0325 2.172346,-0.22414 v -0.83949 c -0.62799,0.10881 -1.17909,0.1795 -1.775041,0.1795 -0.941992,0 -2.396633,-0.0576 -2.608094,-1.97372 z m 0,0"
       id="path16512" />
    <path
       style="fill:#000000;fill-opacity:1;fill-rule:nonzero;stroke:none;stroke-width:1.64047348"
       d="m 66.284156,101.19949 c 0,1.42899 -0.775388,2.33893 -2.28769,2.33893 -0.224276,0 -0.57674,0 -1.108602,-0.0707 v -4.556179 c 0.461389,-0.05766 0.858675,-0.07673 1.134224,-0.07673 1.55076,0 2.262068,0.839447 2.262068,2.364609 m 1.313656,0.0139 c 0,-2.082669 -1.255995,-3.280969 -3.242492,-3.280969 -0.185821,0 -0.685672,0 -1.454641,0.09626 V 95.439754 H 61.65751 v 8.798286 c 0.858676,0.1409 1.813479,0.20508 2.338956,0.20508 2.05699,0 3.601346,-1.17268 3.601346,-3.22968"
       id="path16514" />
    <path
       style="fill:#000000;fill-opacity:1;fill-rule:nonzero;stroke:none;stroke-width:1.64047348"
       d="m 66.284156,101.19949 c 0,1.42899 -0.775388,2.33893 -2.28769,2.33893 -0.224276,0 -0.57674,0 -1.108602,-0.0707 v -4.556179 c 0.461389,-0.05766 0.858675,-0.07673 1.134224,-0.07673 1.55076,0 2.262068,0.839447 2.262068,2.364609 m 1.313656,0.0139 c 0,-2.082669 -1.255995,-3.280969 -3.242492,-3.280969 -0.185821,0 -0.685672,0 -1.454641,0.09626 V 95.439754 H 61.65751 v 8.798286 c 0.858676,0.1409 1.813479,0.20508 2.338956,0.20508 2.05699,0 3.601346,-1.17268 3.601346,-3.22968"
       id="path16516" />
    <path
       style="fill:#000000;fill-opacity:1;fill-rule:nonzero;stroke:none;stroke-width:1.64047348"
       d="m 73.224129,103.53205 c -0.634402,0.0325 -0.884329,0.0576 -1.217542,0.0576 -0.99326,0 -1.992914,-0.10882 -1.992914,-1.14706 0,-0.90994 0.801008,-1.10218 2.101859,-1.10218 0.18582,0 0.576722,0.0186 1.108597,0.0325 z m 1.230354,0.76254 v -4.26778 c 0,-1.819888 -1.172691,-2.057 -2.979772,-2.057 -0.749745,0 -1.505903,0.07069 -2.300499,0.224139 v 0.922777 c 0.692064,-0.115324 1.467451,-0.249713 2.159515,-0.249713 1.813498,0 1.877573,0.320395 1.877573,1.634107 -0.43572,0 -0.775367,-0.0325 -1.057335,-0.0325 -1.364924,0 -3.428327,0.005 -3.428327,1.9352 0,1.67894 1.179091,2.03138 2.870829,2.03138 0.890729,0 1.749418,-0.0186 2.858016,-0.1409"
       id="path16518" />
    <path
       style="fill:#000000;fill-opacity:1;fill-rule:nonzero;stroke:none;stroke-width:1.64047348"
       d="m 73.224129,103.53205 c -0.634402,0.0325 -0.884329,0.0576 -1.217542,0.0576 -0.99326,0 -1.992914,-0.10882 -1.992914,-1.14706 0,-0.90994 0.801008,-1.10218 2.101859,-1.10218 0.18582,0 0.576722,0.0186 1.108597,0.0325 z m 1.230354,0.76254 v -4.26778 c 0,-1.819888 -1.172691,-2.057 -2.979772,-2.057 -0.749745,0 -1.505903,0.07069 -2.300499,0.224139 v 0.922777 c 0.692064,-0.115324 1.467451,-0.249713 2.159515,-0.249713 1.813498,0 1.877573,0.320395 1.877573,1.634107 -0.43572,0 -0.775367,-0.0325 -1.057335,-0.0325 -1.364924,0 -3.428327,0.005 -3.428327,1.9352 0,1.67894 1.179091,2.03138 2.870829,2.03138 0.890729,0 1.749418,-0.0186 2.858016,-0.1409"
       id="path16520" />
    <path
       style="fill:#000000;fill-opacity:1;fill-rule:nonzero;stroke:none;stroke-width:1.64047348"
       d="m 78.107096,98.975873 v 3.678277 c 0,0.69204 0.21786,0.74333 0.839461,0.74333 h 0.986844 v 0.90994 h -1.102186 c -1.307258,0 -1.967288,-0.0832 -1.967288,-1.53153 v -3.800017 h -1.36492 v -0.877904 h 1.36492 v -1.832721 c 0.211443,-0.07069 0.743333,-0.249714 1.243169,-0.403634 v 2.236448 h 1.871155 v 0.877903 z m 0,0"
       id="path16522" />
    <path
       style="fill:#000000;fill-opacity:1;fill-rule:nonzero;stroke:none;stroke-width:1.64047348"
       d="m 78.107096,98.975873 v 3.678277 c 0,0.69204 0.21786,0.74333 0.839461,0.74333 h 0.986844 v 0.90994 h -1.102186 c -1.307258,0 -1.967288,-0.0832 -1.967288,-1.53153 v -3.800017 h -1.36492 v -0.877904 h 1.36492 v -1.832721 c 0.211443,-0.07069 0.743333,-0.249714 1.243169,-0.403634 v 2.236448 h 1.871155 v 0.877903 z m 0,0"
       id="path16524" />
    <path
       style="fill:#000000;fill-opacity:1;fill-rule:nonzero;stroke:none;stroke-width:1.64047348"
       d="m 81.394458,98.097969 h 1.243165 v 6.209451 h -1.243165 z m 0,-2.659381 h 1.243165 v 1.147056 h -1.243165 z m 0,0"
       id="path16526" />
    <path
       style="fill:#000000;fill-opacity:1;fill-rule:nonzero;stroke:none;stroke-width:1.64047348"
       d="m 81.394458,98.097969 h 1.243165 v 6.209451 h -1.243165 z m 0,-2.659381 h 1.243165 v 1.147056 h -1.243165 z m 0,0"
       id="path16528" />
    <path
       style="fill:#000000;fill-opacity:1;fill-rule:nonzero;stroke:none;stroke-width:1.64047348"
       d="m 88.609964,100.09731 c 0,0.96119 -0.512648,1.36491 -1.505904,1.36491 -0.839447,0 -1.435415,-0.41665 -1.435415,-1.36491 0,-0.788206 0.519064,-1.288053 1.435415,-1.288053 0.909953,0 1.505904,0.461297 1.505904,1.288053 m 2.159535,-1.23039 v -0.980393 l -2.755486,0.153919 c -0.237111,-0.0372 -0.506234,-0.07069 -0.909953,-0.07069 -1.56357,0 -2.736242,0.717706 -2.736242,2.191584 0,1.0381 0.608761,1.51232 1.050917,1.74939 -0.608761,0.41014 -0.929181,0.81383 -0.929181,1.40342 0,1.11497 1.262412,1.22392 2.556845,1.21109 h 0.877899 c 0.435766,0.0139 1.390561,0 1.390561,0.58959 0,0.53184 -0.974033,0.93557 -2.306917,0.93557 -0.685666,0 -1.576395,-0.13439 -2.287689,-0.24972 v 0.89716 c 0.897128,0.17949 1.717365,0.21762 2.499164,0.21762 1.999327,0 3.415516,-0.62158 3.415516,-1.98008 0,-1.92884 -2.979772,-1.3585 -4.261394,-1.4867 -0.467778,-0.0641 -0.647214,-0.1795 -0.647214,-0.37155 0,-0.33947 0.397309,-0.62159 0.685666,-0.80104 0.224277,0.0325 0.454972,0.0576 0.679259,0.0576 2.262061,0 2.813166,-1.25601 2.813166,-2.19158 0,-0.583139 -0.224278,-1.050945 -0.563917,-1.358553 0.480595,0.0372 1.159867,0.08324 1.429,0.08324"
       id="path16530" />
    <path
       style="fill:#000000;fill-opacity:1;fill-rule:nonzero;stroke:none;stroke-width:1.64047348"
       d="m 88.609964,100.09731 c 0,0.96119 -0.512648,1.36491 -1.505904,1.36491 -0.839447,0 -1.435415,-0.41665 -1.435415,-1.36491 0,-0.788206 0.519064,-1.288053 1.435415,-1.288053 0.909953,0 1.505904,0.461297 1.505904,1.288053 m 2.159535,-1.23039 v -0.980393 l -2.755486,0.153919 c -0.237111,-0.0372 -0.506234,-0.07069 -0.909953,-0.07069 -1.56357,0 -2.736242,0.717706 -2.736242,2.191584 0,1.0381 0.608761,1.51232 1.050917,1.74939 -0.608761,0.41014 -0.929181,0.81383 -0.929181,1.40342 0,1.11497 1.262412,1.22392 2.556845,1.21109 h 0.877899 c 0.435766,0.0139 1.390561,0 1.390561,0.58959 0,0.53184 -0.974033,0.93557 -2.306917,0.93557 -0.685666,0 -1.576395,-0.13439 -2.287689,-0.24972 v 0.89716 c 0.897128,0.17949 1.717365,0.21762 2.499164,0.21762 1.999327,0 3.415516,-0.62158 3.415516,-1.98008 0,-1.92884 -2.979772,-1.3585 -4.261394,-1.4867 -0.467778,-0.0641 -0.647214,-0.1795 -0.647214,-0.37155 0,-0.33947 0.397309,-0.62159 0.685666,-0.80104 0.224277,0.0325 0.454972,0.0576 0.679259,0.0576 2.262061,0 2.813166,-1.25601 2.813166,-2.19158 0,-0.583139 -0.224278,-1.050945 -0.563917,-1.358553 0.480595,0.0372 1.159867,0.08324 1.429,0.08324"
       id="path16532" />
    <path
       style="fill:#000000;fill-opacity:1;fill-rule:nonzero;stroke:none;stroke-width:1.64047348"
       d="m 96.408629,104.31384 v -3.96664 c 0,-0.660038 -0.01302,-1.384115 -1.127828,-1.384115 -0.634403,0 -1.569982,0.345972 -2.127495,0.570295 v 4.78046 h -1.22394 v -6.222289 h 1.134239 v 0.563926 c 1.300845,-0.54472 1.743001,-0.685667 2.63373,-0.685667 0.935579,0 1.967274,0.519051 1.967274,1.890384 v 4.453646 z m 0,0"
       id="path16534" />
    <path
       style="fill:#000000;fill-opacity:1;fill-rule:nonzero;stroke:none;stroke-width:1.64047348"
       d="m 96.408629,104.31384 v -3.96664 c 0,-0.660038 -0.01302,-1.384115 -1.127828,-1.384115 -0.634403,0 -1.569982,0.345972 -2.127495,0.570295 v 4.78046 h -1.22394 v -6.222289 h 1.134239 v 0.563926 c 1.300845,-0.54472 1.743001,-0.685667 2.63373,-0.685667 0.935579,0 1.967274,0.519051 1.967274,1.890384 v 4.453646 z m 0,0"
       id="path16536" />
    <path
       style="fill:#000000;fill-opacity:1;fill-rule:nonzero;stroke:none;stroke-width:1.64047348"
       d="m 104.39952,101.16103 c 0,1.46745 -0.67283,2.41585 -1.96728,2.41585 -1.28802,0 -1.96088,-0.9484 -1.96088,-2.41585 0,-1.454617 0.68566,-2.32615 1.96088,-2.32615 1.28161,0 1.96728,0.871533 1.96728,2.32615 m 1.32008,0 c 0,-1.986502 -1.21113,-3.216842 -3.28736,-3.216842 -2.08903,0 -3.28735,1.23034 -3.28735,3.216842 0,1.94167 1.1919,3.30018 3.28735,3.30018 1.92243,0 3.28736,-1.37134 3.28736,-3.30018"
       id="path16538" />
    <path
       style="fill:#000000;fill-opacity:1;fill-rule:nonzero;stroke:none;stroke-width:1.64047348"
       d="m 104.39952,101.16103 c 0,1.46745 -0.67283,2.41585 -1.96728,2.41585 -1.28802,0 -1.96088,-0.9484 -1.96088,-2.41585 0,-1.454617 0.68566,-2.32615 1.96088,-2.32615 1.28161,0 1.96728,0.871533 1.96728,2.32615 m 1.32008,0 c 0,-1.986502 -1.21113,-3.216842 -3.28736,-3.216842 -2.08903,0 -3.28735,1.23034 -3.28735,3.216842 0,1.94167 1.1919,3.30018 3.28735,3.30018 1.92243,0 3.28736,-1.37134 3.28736,-3.30018"
       id="path16540" />
    <path
       style="fill:#000000;fill-opacity:1;fill-rule:nonzero;stroke:none;stroke-width:1.64047348"
       d="m 107.37288,95.438588 h 1.24319 v 8.868832 h -1.24319 z m 0,0"
       id="path16542" />
    <path
       style="fill:#000000;fill-opacity:1;fill-rule:nonzero;stroke:none;stroke-width:1.64047348"
       d="m 107.37288,95.438588 h 1.24319 v 8.868832 h -1.24319 z m 0,0"
       id="path16544" />
    <path
       style="fill:#000000;fill-opacity:1;fill-rule:nonzero;stroke:none;stroke-width:1.64047348"
       d="m 110.60897,95.438588 h 1.23678 v 8.868832 h -1.23678 z m 0,0"
       id="path16546" />
    <path
       style="fill:#000000;fill-opacity:1;fill-rule:nonzero;stroke:none;stroke-width:1.64047348"
       d="m 110.60897,95.438588 h 1.23678 v 8.868832 h -1.23678 z m 0,0"
       id="path16548" />
    <path
       style="fill:#000000;fill-opacity:1;fill-rule:nonzero;stroke:none;stroke-width:1.64047348"
       d="m 118.33073,100.75093 h -3.47318 c 0.0321,-1.21755 0.61517,-1.941673 1.72377,-1.941673 1.30084,0 1.72379,0.813825 1.74941,1.941673 m 1.40338,0.83945 V 101.283 c 0,-1.999333 -0.90996,-3.313004 -3.15279,-3.313004 -1.67891,0 -3.09511,0.922779 -3.09511,3.107934 0,2.12108 1.2688,3.37067 3.56291,3.37067 0.7177,0 1.39057,-0.0325 2.17876,-0.22414 v -0.83949 c -0.64082,0.10881 -1.17909,0.1795 -1.78146,0.1795 -0.94199,0 -2.39663,-0.0576 -2.6081,-1.97372 z m 0,0"
       id="path16550" />
    <path
       style="fill:#000000;fill-opacity:1;fill-rule:nonzero;stroke:none;stroke-width:1.64047348"
       d="m 118.33073,100.75093 h -3.47318 c 0.0321,-1.21755 0.61517,-1.941673 1.72377,-1.941673 1.30084,0 1.72379,0.813825 1.74941,1.941673 m 1.40338,0.83945 V 101.283 c 0,-1.999333 -0.90996,-3.313004 -3.15279,-3.313004 -1.67891,0 -3.09511,0.922779 -3.09511,3.107934 0,2.12108 1.2688,3.37067 3.56291,3.37067 0.7177,0 1.39057,-0.0325 2.17876,-0.22414 v -0.83949 c -0.64082,0.10881 -1.17909,0.1795 -1.78146,0.1795 -0.94199,0 -2.39663,-0.0576 -2.6081,-1.97372 z m 0,0"
       id="path16552" />
    <path
       style="fill:#000000;fill-opacity:1;fill-rule:nonzero;stroke:none;stroke-width:1.64047348"
       d="m 123.14962,104.442 c -0.76896,0 -1.49948,-0.0962 -2.2108,-0.22414 v -0.97407 c 0.75617,0.15392 1.40338,0.28831 2.0506,0.28831 0.91637,0 1.83913,-0.21809 1.83913,-0.91636 0,-0.8395 -1.32649,-0.90994 -1.9801,-1.06377 -0.90353,-0.22414 -1.94806,-0.55751 -1.94806,-1.755808 0,-1.422578 1.37774,-1.826305 2.685,-1.826305 0.93557,0 1.58921,0.108814 2.10185,0.179496 v 0.929196 c -0.60878,-0.102305 -1.25599,-0.198563 -1.88398,-0.198563 -0.62799,0 -1.64689,0.09626 -1.64689,0.82666 0,1.352084 3.9602,0.384564 3.9602,2.761874 0,1.21755 -1.03811,1.97371 -2.96695,1.97371"
       id="path16554" />
    <path
       style="fill:#000000;fill-opacity:1;fill-rule:nonzero;stroke:none;stroke-width:1.64047348"
       d="m 123.14962,104.442 c -0.76896,0 -1.49948,-0.0962 -2.2108,-0.22414 v -0.97407 c 0.75617,0.15392 1.40338,0.28831 2.0506,0.28831 0.91637,0 1.83913,-0.21809 1.83913,-0.91636 0,-0.8395 -1.32649,-0.90994 -1.9801,-1.06377 -0.90353,-0.22414 -1.94806,-0.55751 -1.94806,-1.755808 0,-1.422578 1.37774,-1.826305 2.685,-1.826305 0.93557,0 1.58921,0.108814 2.10185,0.179496 v 0.929196 c -0.60878,-0.102305 -1.25599,-0.198563 -1.88398,-0.198563 -0.62799,0 -1.64689,0.09626 -1.64689,0.82666 0,1.352084 3.9602,0.384564 3.9602,2.761874 0,1.21755 -1.03811,1.97371 -2.96695,1.97371"
       id="path16556" />
  </g>
</svg>
