<svg xmlns="http://www.w3.org/2000/svg" class="thumb" width="1000" height="1000" viewBox="0 0 600 600"><style>
@keyframes a0_t { 0% { transform: translate(-44px,245.1px) scale(1.4,1.4); } 52.632% { transform: translate(-44px,245.1px) scale(1.4,1.4); } 100% { transform: translate(-44px,245.1px) scale(1.4,1.4); } }
@keyframes a0_o { 0% { opacity: 1; } 52.632% { opacity: 1; animation-timing-function: cubic-bezier(.5,0,.7,.7); } 62.632% { opacity: 0; } 100% { opacity: 0; } }
@keyframes a2_t { 0% { transform: translateX(25px); } 18.421% { transform: translateX(25px); animation-timing-function: cubic-bezier(.4,.6,.6,1); } 26.316% { transform: translateX(85.5px); } 100% { transform: translateX(85.5px); } }
@keyframes a1_t { 0% { transform: translateY(4.4px) rotate(44deg) skewX(0deg) scale(.8,1.3); } 26.316% { transform: translateY(4.4px) rotate(44deg) skewX(0deg) scale(.8,1.3); } 100% { transform: translateY(4.4px) rotate(44deg) skewX(0deg) scale(.8,1.3); } }
@keyframes a1_o { 0% { opacity: 0; } 18.421% { opacity: 0; animation-timing-function: cubic-bezier(.4,.1,.6,.9); } 21.053% { opacity: 1; animation-timing-function: cubic-bezier(.4,.1,.6,.9); } 23.684% { opacity: 0; animation-timing-function: cubic-bezier(.4,.1,.6,.9); } 26.316% { opacity: 1; animation-timing-function: cubic-bezier(.4,.1,.6,.9); } 31.579% { opacity: 0; animation-timing-function: cubic-bezier(.4,.1,.6,.9); } 36.842% { opacity: 1; animation-timing-function: cubic-bezier(.4,.1,.6,.9); } 42.105% { opacity: 0; animation-timing-function: cubic-bezier(.4,.1,.6,.9); } 47.368% { opacity: 1; } 100% { opacity: 1; } }
@keyframes a3_t { 0% { transform: translate(453px,73.6px) rotate(-136deg) skewX(0deg) scale(.8,1.3); } 18.421% { transform: translate(453px,73.6px) rotate(-136deg) skewX(0deg) scale(.8,1.3); } 26.316% { transform: translate(403.5px,73.6px) rotate(-136deg) skewX(0deg) scale(.8,1.3); } 100% { transform: translate(403.5px,73.6px) rotate(-136deg) skewX(0deg) scale(.8,1.3); } }
@keyframes a3_o { 0% { opacity: 0; } 18.421% { opacity: 0; } 21.053% { opacity: 1; } 23.684% { opacity: 0; } 26.316% { opacity: 1; animation-timing-function: cubic-bezier(.4,.1,.6,.9); } 31.579% { opacity: 0; animation-timing-function: cubic-bezier(.4,.1,.6,.9); } 36.842% { opacity: 1; animation-timing-function: cubic-bezier(.4,.1,.6,.9); } 42.105% { opacity: 0; animation-timing-function: cubic-bezier(.4,.1,.6,.9); } 47.368% { opacity: 1; } 100% { opacity: 1; } }
@keyframes a5_t { 0% { transform: translateX(0px); animation-timing-function: cubic-bezier(.4,.6,.6,1); } 15.789% { transform: translateX(219.3px); } 100% { transform: translateX(219.3px); } }
@keyframes a4_t { 0% { transform: translateY(30.4px) scale(.1,.1); } 15.789% { transform: translateY(30.4px) scale(.1,.1); } 100% { transform: translateY(30.4px) scale(.1,.1); } }
@keyframes a4_o { 0% { opacity: 1; animation-timing-function: cubic-bezier(.4,.1,.6,.9); } 2.632% { opacity: 0; animation-timing-function: cubic-bezier(.4,.1,.6,.9); } 5.263% { opacity: 1; animation-timing-function: cubic-bezier(.4,.1,.6,.9); } 7.895% { opacity: 0; animation-timing-function: cubic-bezier(.4,.1,.6,.9); } 10.526% { opacity: 1; animation-timing-function: cubic-bezier(.4,.1,.6,.9); } 13.158% { opacity: 0; animation-timing-function: cubic-bezier(.4,.1,.6,.9); } 15.789% { opacity: 1; animation-timing-function: cubic-bezier(.4,.1,.6,.9); } 18.421% { opacity: 0; animation-timing-function: cubic-bezier(.4,.1,.6,.9); } 21.053% { opacity: 1; animation-timing-function: cubic-bezier(.4,.1,.6,.9); } 23.684% { opacity: 0; animation-timing-function: cubic-bezier(.4,.1,.6,.9); } 26.316% { opacity: 1; animation-timing-function: cubic-bezier(.4,.1,.6,.9); } 31.579% { opacity: 0; animation-timing-function: cubic-bezier(.4,.1,.6,.9); } 36.842% { opacity: 1; animation-timing-function: cubic-bezier(.4,.1,.6,.9); } 42.105% { opacity: 0; animation-timing-function: cubic-bezier(.4,.1,.6,.9); } 47.368% { opacity: 1; } 100% { opacity: 1; } }
@keyframes a6_t {  }
@keyframes a8_t { 0% { transform: translateX(98.3px); } 5.263% { transform: translateX(98.3px); } 100% { transform: translateX(98.3px); } }
@keyframes a7_t { 0% { transform: translateY(300px) scale(.5,.5); } 31.579% { transform: translateY(300px) scale(.5,.5); animation-timing-function: cubic-bezier(.1,1,.6,1); } 36.842% { transform: translateY(1px) scale(.5,.5); } 100% { transform: translateY(1px) scale(.5,.5); } }
@keyframes a10_t { 0% { transform: translateX(245.9px); } 5.263% { transform: translateX(245.9px); } 100% { transform: translateX(245.9px); } }
@keyframes a9_t { 0% { transform: translateY(-300px) scale(.5,.5); } 39.474% { transform: translateY(-300px) scale(.5,.5); animation-timing-function: cubic-bezier(.2,1,.6,1); } 44.737% { transform: translateY(1px) scale(.5,.5); } 100% { transform: translateY(1px) scale(.5,.5); } }
@keyframes a11_o { 0% { opacity: 0; } 62.632% { opacity: 0; } 68.421% { opacity: 1; } 84.211% { opacity: 1; } 89.474% { opacity: 0; } 100% { opacity: 0; } }
</style><g elementtype="background"><rect width="600" height="600" fill="#fff"/></g><g transform="translate(-44,245.1) scale(1.407,1.407)" style="animation: 19s linear infinite both a0_t, 19s linear infinite both a0_o;"><g style="animation: 19s linear infinite both a2_t;"><g opacity="0" transform="translate(25,4.4) rotate(44) skewX(0) scale(.849,1.305)" style="animation: 19s linear infinite both a1_t, 19s linear infinite both a1_o;"><svg width="44.7" height="44.7" viewBox="4.8 51.5 44.7 44.7"><path d="M15.9 56.5l-6.1 .6c1.7 18.1 16.1 32.5 34.1 34.1l.6-6c-15.2-1.4-27.2-13.5-28.6-28.7Z" fill="#e78200"/></svg></g></g><g opacity="0" transform="translate(453,73.6) rotate(-136) skewX(0) scale(.849,1.305)" style="animation: 19s linear infinite both a3_t, 19s linear infinite both a3_o;"><svg width="44.7" height="44.7" viewBox="4.8 51.5 44.7 44.7"><path d="M15.9 56.5l-6.1 .6c1.7 18.1 16.1 32.5 34.1 34.1l.6-6c-15.2-1.4-27.2-13.5-28.6-28.7Z" fill="#e78200"/></svg></g><g style="animation: 19s linear infinite both a5_t;"><g transform="translate(0,30.4) scale(.093,.093)" style="animation: 19s linear infinite both a4_t, 19s linear infinite both a4_o;"><svg width="187" height="186.8" viewBox="-5.1 -5 187 186.8" class="thumb" style="animation: 1s linear both a6_t;"><path fill="#e78200" d="M176.8 88.4c0 48.8-39.6 88.4-88.4 88.4c-48.8 0-88.4-39.6-88.4-88.4c0-48.8 39.6-88.4 88.4-88.4c48.8 0 88.4 39.6 88.4 88.4Z"/></svg></g></g><g style="animation: 19s linear infinite both a8_t;"><g transform="translate(98.3,300) scale(.5,.5)" style="animation: 19s linear infinite both a7_t;"><svg width="232.9" height="202" overflow="visible"><g transform="translate(0,106.5)"><path d="M71.9 0h-9.4v-31.2c0-3.5-0.3-6.5-0.8-8.9c-0.5-2.4-1.5-4.3-3.1-5.7c-1.6-1.5-3.8-2.6-6.7-3.2c-2.8-0.7-6.6-1-11.3-1c-5.1 0-9.2 .4-12.5 1.1c-3.2 .8-5.7 1.8-7.6 3.2c-1.9 1.4-3.1 3-3.8 4.9c-0.7 2-1.1 4.1-1.1 6.4v34.4h-9.4v-56.2h9.4v9.3c.7-1.6 1.7-2.9 2.9-4.1c1.3-1.2 2.8-2.1 4.3-3c1.6-0.8 3.4-1.4 5.2-1.9c1.9-0.5 3.7-0.9 5.6-1.2c1.8-0.3 3.6-0.5 5.4-0.6c1.7-0.1 3.3-0.1 4.7-0.1c4.2 0 7.8 .3 10.8 .8c3 .5 5.6 1.3 7.7 2.3c2.1 1 3.8 2.2 5 3.7c1.3 1.5 2.3 3.3 3 5.2c.7 2 1.2 4.2 1.4 6.6c.2 2.4 .3 5.1 .3 8v31.2Zm45.3 1.1c-6.2 0-11.5-0.5-15.9-1.3c-4.3-0.9-7.9-2.4-10.6-4.5c-2.8-2.1-4.7-4.9-6-8.5c-1.2-3.5-1.8-8-1.8-13.4c0-6.1 .6-11.2 1.8-15.2c1.3-4 3.2-7.2 6-9.6c2.7-2.4 6.3-4.1 10.6-5c4.4-0.9 9.7-1.4 15.9-1.4c4.5 0 8.4 .3 11.6 1c3.3 .6 6.1 1.6 8.4 2.8c2.4 1.2 4.2 2.7 5.7 4.5c1.4 1.7 2.6 3.6 3.4 5.5c.8 2 1.4 4.2 1.7 6.8c.3 2.6 .5 5.4 .5 8.3l-0.8 3.1h-55.5c0 4.3 .5 7.8 1.3 10.6c.9 2.7 2.3 4.8 4.2 6c2 1.3 4.5 2.1 7.7 2.4c3.2 .4 7.1 .6 11.8 .6c4.3 0 7.9-0.2 10.7-0.4c2.8-0.3 5.1-0.7 6.7-1.4c1.7-0.7 2.8-1.6 3.5-2.9c.7-1.2 1-2.8 1-4.7h9.4c0 3-0.5 5.6-1.6 7.7c-1.1 2.1-2.8 3.9-5.2 5.2c-2.5 1.3-5.7 2.3-9.7 2.9c-4 .6-8.9 .9-14.8 .9Zm0-51.1c-3.1 0-5.9 .1-8.3 .2c-2.5 .1-4.6 .4-6.5 .9c-1.8 .4-3.4 1-4.7 1.9c-1.3 .8-2.3 1.8-3.1 2.9c-0.8 1.1-1.4 2.7-1.8 4.7c-0.4 2.1-0.6 4.5-0.6 7.4h46.9c0-3.8-0.4-6.8-1.2-9c-0.8-2.2-2.1-3.9-3.9-5.3c-1.7-1.4-4-2.4-6.8-2.9c-2.7-0.5-6.1-0.8-10-0.8Zm42.2 21.5c0-5.8 .6-10.5 1.9-14.3c1.2-3.8 3.2-6.8 5.9-9c2.8-2.2 6.3-3.8 10.7-4.7c4.3-0.9 9.7-1.3 15.9-1.3c6.2 0 11.6 .4 15.9 1.3c4.4 .9 7.9 2.5 10.7 4.7c2.7 2.2 4.7 5.2 5.9 9c1.3 3.8 1.9 8.5 1.9 14.3c0 5.7-0.6 10.5-1.9 14.3c-1.2 3.8-3.2 6.9-5.9 9.1c-2.8 2.3-6.3 3.9-10.7 4.8c-4.3 .9-9.7 1.4-15.9 1.4c-6.2 0-11.6-0.5-15.9-1.4c-4.4-0.9-7.9-2.5-10.7-4.8c-2.7-2.2-4.7-5.3-5.9-9.1c-1.3-3.8-1.9-8.6-1.9-14.3Zm9.4 0c0 3.1 .1 5.8 .3 8.1c.3 2.4 .7 4.3 1.3 6c.7 1.7 1.6 3 2.7 4c1.1 1.1 2.6 1.9 4.5 2.5c1.8 .7 4.1 1.1 6.7 1.3c2.7 .2 5.8 .3 9.5 .3c3.1 0 5.9 0 8.4-0.2c2.4-0.1 4.6-0.5 6.4-1c1.9-0.5 3.4-1.2 4.7-2.2c1.3-1 2.4-2.3 3.2-3.9c.8-1.7 1.4-3.7 1.7-6.2c.4-2.4 .6-5.3 .6-8.7c0-3.4-0.2-6.2-0.6-8.6c-0.3-2.3-0.9-4.3-1.7-5.9c-0.8-1.6-1.9-2.9-3.2-3.8c-1.3-0.9-2.8-1.6-4.7-2.1c-1.8-0.5-4-0.8-6.4-0.9c-2.5-0.1-5.3-0.2-8.4-0.2c-3.1 0-5.9 .1-8.4 .2c-2.4 .1-4.6 .4-6.4 .9c-1.9 .5-3.4 1.2-4.7 2.1c-1.3 .9-2.4 2.2-3.2 3.8c-0.8 1.6-1.4 3.6-1.7 5.9c-0.4 2.4-0.6 5.2-0.6 8.6Z" data-textpath="neo" data-text-anchor="middle" data-font-size="100" data-letterspacing="0" data-side="left" data-offset="0.5" data-dx="0" data-dy="0" data-xmlspace="preserve" data-font="Michroma" data-font-src="/Content/clientfonts/michroma.woff" data-font-scale="contain" data-x="0" data-y="0" fill="#7e7e7e"/></g></svg></g></g><g style="animation: 19s linear infinite both a10_t;"><g transform="translate(245.9,-300) scale(.5,.5)" style="animation: 19s linear infinite both a9_t;"><svg width="290.4" height="202" overflow="visible"><g transform="translate(0,106.5)"><path d="M53.1-25h7.8c0 4.8-0.4 8.8-1.1 12c-0.8 3.2-2.1 5.8-4 7.7c-1.8 1.9-4.2 3.3-7.2 4.1c-3 .8-6.7 1.2-11.1 1.2c-4.3 0-7.8-0.3-10.7-1c-2.9-0.6-5.3-1.7-7.1-3.3c-1.8-1.6-3-3.6-3.8-6.3c-0.8-2.6-1.2-5.8-1.2-9.7v-28.2h-11.6v-7.8h11.6v-15.3h9.4v15.3h35.3v7.8h-35.3v28.2c0 3.1 .2 5.5 .7 7.2c.5 1.7 1.2 2.9 2.3 3.7c1 .8 2.4 1.3 4.1 1.4c1.7 .1 3.8 .2 6.2 .2c2 0 3.8 0 5.3-0.1c1.5-0.1 2.9-0.3 4.1-0.6c1.1-0.4 2.1-0.9 2.9-1.6c.8-0.7 1.5-1.7 2-2.9c.5-1.3 .9-2.9 1.1-4.8c.2-2 .3-4.4 .3-7.2Zm50 26.1c-6.2 0-11.5-0.5-15.9-1.3c-4.4-0.9-7.9-2.4-10.6-4.5c-2.8-2.1-4.8-4.9-6-8.5c-1.2-3.5-1.8-8-1.8-13.4c0-6.1 .6-11.2 1.8-15.2c1.2-4 3.2-7.2 6-9.6c2.7-2.4 6.2-4.1 10.6-5c4.4-0.9 9.7-1.4 15.9-1.4c4.5 0 8.3 .3 11.6 1c3.3 .6 6.1 1.6 8.4 2.8c2.3 1.2 4.2 2.7 5.7 4.5c1.4 1.7 2.6 3.6 3.4 5.5c.8 2 1.4 4.2 1.7 6.8c.3 2.6 .5 5.4 .5 8.3l-0.8 3.1h-55.5c0 4.3 .4 7.8 1.3 10.6c.8 2.7 2.2 4.8 4.2 6c1.9 1.3 4.5 2.1 7.7 2.4c3.2 .4 7.1 .6 11.8 .6c4.3 0 7.9-0.2 10.7-0.4c2.8-0.3 5.1-0.7 6.7-1.4c1.7-0.7 2.8-1.6 3.5-2.9c.7-1.2 1-2.8 1-4.7h9.4c0 3-0.6 5.6-1.6 7.7c-1.1 2.1-2.8 3.9-5.3 5.2c-2.4 1.3-5.6 2.3-9.6 2.9c-4 .6-8.9 .9-14.8 .9Zm0-51.1c-3.1 0-5.9 .1-8.3 .2c-2.5 .1-4.7 .4-6.5 .9c-1.8 .4-3.4 1-4.7 1.9c-1.3 .8-2.4 1.8-3.2 2.9c-0.8 1.1-1.3 2.7-1.7 4.7c-0.4 2.1-0.6 4.5-0.6 7.4h46.9c0-3.8-0.4-6.8-1.2-9c-0.8-2.2-2.1-3.9-3.9-5.3c-1.7-1.4-4-2.4-6.8-2.9c-2.7-0.5-6.1-0.8-10-0.8Zm37.5-6.2l29.7 56.2h12.5l29.7-56.2h-10.9l-25 50l-25-50h-11Zm134.2 56.2v-7.7c-0.1 .4-0.9 1.4-2.2 2.9c-1 1.2-2.3 2.2-3.9 3.1c-1.7 .9-3.8 1.6-6.6 2.1c-2.7 .5-6.3 .8-10.7 .8c-5.9 0-10.9-0.3-15.1-0.9c-4.1-0.6-7.5-1.6-10.2-2.8c-2.6-1.3-4.5-2.9-5.8-4.8c-1.2-2-1.8-4.3-1.8-7c0-2.8 .3-5.2 1-7.2c.7-2 1.7-3.6 2.9-5c1.3-1.3 2.9-2.3 4.7-3.1c1.8-0.7 3.9-1.3 6.2-1.7c2.4-0.4 4.9-0.6 7.7-0.7c2.7-0.1 5.7-0.2 8.8-0.2c4.5 0 8.2 .2 11.2 .6c3 .4 5.4 .8 7.3 1.4c1.9 .6 3.4 1.2 4.4 1.8c.9 .7 1.6 1.3 2.1 1.8c0-3.6-0.2-6.7-0.5-9.3c-0.3-2.6-0.8-4.7-1.5-6.4c-0.7-1.8-1.6-3.1-2.7-4.2c-1.1-1-2.5-1.8-4.1-2.3c-1.6-0.5-3.5-0.8-5.6-1c-2.2-0.1-4.7-0.2-7.4-0.2c-4.3 0-7.9 .1-10.7 .3c-2.8 .2-5.1 .6-6.7 1.3c-1.7 .6-2.9 1.4-3.6 2.5c-0.6 1.1-1 2.5-1 4.3h-9.4c0-3 .6-5.5 1.6-7.5c1.1-2.1 2.8-3.7 5.3-5c2.5-1.3 5.7-2.2 9.7-2.8c4-0.6 8.9-0.9 14.8-0.9c5.7 0 10.6 .5 14.5 1.4c4 .9 7.2 2.6 9.7 5c2.4 2.4 4.2 5.6 5.3 9.6c1.1 4 1.6 9.1 1.6 15.2v26.6h-9.3Zm-21.8-6.2c4.1 0 7.6-0.2 10.4-0.6c2.7-0.4 5-1 6.7-1.8c1.7-0.8 2.9-1.8 3.6-2.9c.7-1.2 1.1-2.6 1.1-4.1c0-1.6-0.5-2.9-1.3-4c-0.8-1.1-2.2-2-4.1-2.7c-2-0.6-4.5-1.1-7.7-1.4c-3.2-0.4-7.2-0.5-11.8-0.5c-4.7 0-8.5 .1-11.4 .2c-2.9 .2-5.1 .6-6.7 1.1c-1.5 .6-2.6 1.5-3.1 2.6c-0.5 1.2-0.8 2.7-0.8 4.7c0 1.9 .3 3.5 .8 4.7c.6 1.3 1.8 2.2 3.5 2.9c1.8 .7 4.3 1.1 7.6 1.4c3.3 .2 7.7 .3 13.2 .3Z" data-textpath="teva" data-text-anchor="middle" data-font-size="100" data-letterspacing="0" data-side="left" data-offset="0.5" data-dx="0" data-dy="0" data-xmlspace="preserve" data-font="Michroma" data-font-src="/Content/clientfonts/michroma.woff" data-font-scale="contain" data-x="0" data-y="0" fill="#7e7e7e"/></g></svg></g></g></g><path fill="#7e7e7e" opacity="0" d="M-181.7-14.6c2.1 0 3.9 0 5.3 .1c1.5 .1 2.7 .2 3.7 .3c1 .2 1.8 .4 2.4 .6c.5 .3 1 .6 1.3 1.1c.3 .5 .5 .9 .5 1.4c.1 .5 .2 1 .2 1.6c0 .7-0.1 1.3-0.2 1.9c0 .5-0.2 1-0.6 1.4c-0.3 .5-0.7 .9-1.3 1.2c-0.7 .3-1.5 .6-2.5 .8c-1.1 .2-2.4 .4-4 .5c-1.6 .1-3.5 .1-5.7 .1c-2.4 0-4.5 0-6.1-0.2c-1.6-0.1-2.8-0.4-3.8-0.8c-0.9-0.4-1.6-0.9-2-1.6c-0.4-0.7-0.5-1.6-0.5-2.7h-5.4c0 1.7 .3 3.1 .9 4.3c.6 1.1 1.6 2.1 3 2.8c1.4 .8 3.2 1.3 5.5 1.6c2.3 .4 5.1 .5 8.4 .5c2.7 0 5 0 7-0.2c2.1-0.2 3.8-0.4 5.2-0.7c1.5-0.4 2.7-0.8 3.6-1.3c1-0.5 1.8-1.2 2.3-1.9c.6-0.7 1-1.6 1.2-2.5c.2-1 .3-2.1 .3-3.3c0-1.2-0.1-2.2-0.3-3.2c-0.2-0.9-0.6-1.7-1.2-2.4c-0.5-0.6-1.2-1.3-2.2-1.8c-0.9-0.6-2-1-3.4-1.3c-1.4-0.3-3-0.5-5-0.6c-1.9-0.1-4.1-0.2-6.6-0.2c-2.1 0-3.8 0-5.3 0c-1.5 0-2.7 0-3.7-0.1c-1-0.1-1.8-0.3-2.3-0.5c-0.6-0.2-1.1-0.5-1.4-0.9c-0.2-0.4-0.4-0.9-0.5-1.5c-0.1-0.6-0.1-1.2-0.1-1.8c0-1.1 .2-2 .7-2.6c.5-0.6 1.3-1 2.4-1.3c1.1-0.3 2.5-0.5 4.4-0.6c1.8-0.1 4-0.1 6.7-0.1c2.5 0 4.5 .1 6.1 .2c1.6 .1 2.9 .4 3.8 .8c1 .3 1.6 .8 2 1.4c.4 .7 .6 1.5 .6 2.5h5.3c0-1.6-0.3-3-0.8-4.2c-0.5-1.1-1.5-2.1-2.8-2.9c-1.4-0.8-3.2-1.3-5.5-1.7c-2.3-0.4-5.2-0.6-8.7-0.6c-3.6 0-6.6 .2-9.1 .5c-2.5 .3-4.5 .9-6 1.6c-1.6 .7-2.7 1.6-3.4 2.7c-0.7 1.2-1.1 2.6-1.1 4.3c0 1.2 .1 2.3 .3 3.4c.3 1 .6 1.9 1.2 2.6c.5 .7 1.3 1.3 2.2 1.7c.9 .5 2 .8 3.4 1c1.4 .2 3 .4 5 .5c1.9 .1 4.1 .1 6.6 .1Zm44.5 15.2c-3.5 0-6.5-0.2-9-0.7c-2.5-0.5-4.5-1.4-6.1-2.6c-1.6-1.2-2.7-2.8-3.4-4.8c-0.7-2-1.1-4.6-1.1-7.6c0-3.5 .4-6.4 1.1-8.7c.7-2.3 1.8-4.2 3.4-5.5c1.6-1.4 3.6-2.3 6.1-2.8c2.5-0.6 5.5-0.9 9-0.9c2.6 0 4.8 .2 6.7 .6c1.8 .4 3.4 .9 4.7 1.6c1.4 .7 2.4 1.6 3.3 2.6c.8 1 1.4 2 1.9 3.1c.5 1.1 .8 2.4 1 3.9c.2 1.5 .3 3.1 .3 4.7l-0.5 1.8h-31.6c0 2.5 .2 4.5 .7 6c.5 1.6 1.3 2.7 2.4 3.5c1.1 .7 2.6 1.2 4.4 1.3c1.8 .2 4.1 .3 6.7 .3c2.5 0 4.5 0 6.1-0.2c1.6-0.1 2.9-0.4 3.9-0.8c.9-0.4 1.6-0.9 1.9-1.6c.4-0.7 .6-1.6 .6-2.7h5.4c0 1.7-0.3 3.2-0.9 4.4c-0.7 1.2-1.6 2.2-3 3c-1.4 .7-3.3 1.3-5.5 1.6c-2.3 .3-5.1 .5-8.5 .5Zm0-29.1c-1.7 0-3.3 0-4.7 .1c-1.4 .1-2.7 .2-3.7 .5c-1.1 .2-1.9 .6-2.7 1.1c-0.7 .5-1.3 1-1.8 1.7c-0.4 .6-0.8 1.5-1 2.7c-0.2 1.1-0.3 2.5-0.3 4.1h26.7c0-2.1-0.2-3.8-0.7-5.1c-0.4-1.2-1.2-2.2-2.2-3c-1-0.8-2.3-1.4-3.9-1.7c-1.5-0.3-3.4-0.4-5.7-0.4Zm44.6-4.5c3.5 0 6.6 .3 9 .9c2.5 .5 4.6 1.4 6.1 2.7c1.6 1.3 2.7 3 3.4 5.2c.7 2.2 1.1 4.9 1.1 8.2c0 3.3-0.4 5.9-1.1 8.1c-0.7 2.1-1.8 3.8-3.4 5.1c-1.5 1.2-3.6 2.1-6.1 2.6c-2.4 .6-5.5 .8-9 .8c-2.6 0-4.7-0.1-6.4-0.4c-1.7-0.3-3.1-0.6-4.2-1c-1.1-0.5-1.9-0.9-2.5-1.4c-0.5-0.5-0.9-0.9-1.2-1.4v14.3h-5.3v-42.8h5.3v3c.3-0.4 .7-0.8 1.2-1.2c.6-0.5 1.4-0.9 2.5-1.3c1.1-0.4 2.5-0.7 4.2-1c1.7-0.2 3.8-0.4 6.4-0.4Zm0 4.5c-1.8 0-3.4 0-4.8 .1c-1.4 .1-2.6 .3-3.7 .6c-1 .3-1.9 .7-2.6 1.3c-0.8 .5-1.4 1.2-1.8 2.2c-0.5 .9-0.8 2-1.1 3.4c-0.2 1.3-0.3 2.9-0.3 4.8c0 2 .1 3.6 .3 5c.3 1.3 .6 2.5 1.1 3.4c.4 .9 1 1.7 1.8 2.2c.7 .6 1.6 1 2.6 1.3c1.1 .2 2.3 .4 3.7 .5c1.4 .1 3 .1 4.8 .1c2.1 0 3.8 0 5.4-0.2c1.5-0.1 2.8-0.3 3.8-0.7c1.1-0.3 1.9-0.8 2.6-1.3c.6-0.6 1.2-1.4 1.5-2.3c.4-0.9 .6-2 .7-3.3c.2-1.3 .2-2.8 .2-4.6c0-1.7 0-3.2-0.2-4.5c-0.1-1.3-0.3-2.5-0.7-3.4c-0.3-0.9-0.9-1.7-1.5-2.3c-0.7-0.6-1.5-1-2.6-1.4c-1-0.3-2.3-0.6-3.8-0.7c-1.6-0.1-3.3-0.2-5.4-0.2Zm57 14.2c0 2.8-0.2 5.1-0.7 6.9c-0.4 1.8-1.2 3.3-2.2 4.4c-1.1 1.1-2.5 1.8-4.2 2.3c-1.7 .5-3.8 .7-6.3 .7c-2.4 0-4.5-0.2-6.1-0.6c-1.7-0.3-3-1-4-1.8c-1-0.9-1.8-2.1-2.2-3.6c-0.5-1.5-0.7-3.4-0.7-5.6v-16.1h-6.6v-4.4h6.6v-8.7h5.4v8.7h20.1v4.4h-20.1v16.1c0 1.8 .1 3.2 .4 4.1c.2 1 .7 1.7 1.3 2.2c.6 .4 1.3 .7 2.3 .7c1 .1 2.2 .1 3.6 .1c1.1 0 2.1 0 3 0c.9 0 1.6-0.2 2.3-0.4c.6-0.2 1.2-0.4 1.7-0.8c.4-0.4 .8-1 1.1-1.7c.3-0.8 .5-1.7 .6-2.8c.2-1.1 .2-2.4 .2-4.1Zm24 14.9c-3.5 0-6.6-0.2-9.1-0.7c-2.4-0.5-4.5-1.4-6-2.6c-1.6-1.2-2.7-2.8-3.4-4.8c-0.7-2-1.1-4.6-1.1-7.6c0-3.5 .4-6.4 1.1-8.7c.7-2.3 1.8-4.2 3.4-5.5c1.5-1.4 3.6-2.3 6-2.8c2.5-0.6 5.6-0.9 9.1-0.9c2.6 0 4.8 .2 6.6 .6c1.9 .4 3.5 .9 4.8 1.6c1.3 .7 2.4 1.6 3.2 2.6c.9 1 1.5 2 2 3.1c.5 1.1 .8 2.4 1 3.9c.1 1.5 .2 3.1 .2 4.7l-0.4 1.8h-31.6c0 2.5 .2 4.5 .7 6c.5 1.6 1.3 2.7 2.4 3.5c1.1 .7 2.6 1.2 4.4 1.3c1.8 .2 4 .3 6.7 .3c2.5 0 4.5 0 6.1-0.2c1.6-0.1 2.9-0.4 3.8-0.8c1-0.4 1.6-0.9 2-1.6c.4-0.7 .6-1.6 .6-2.7h5.3c0 1.7-0.3 3.2-0.9 4.4c-0.6 1.2-1.6 2.2-3 3c-1.4 .7-3.2 1.3-5.5 1.6c-2.2 .3-5 .5-8.4 .5Zm0-29.1c-1.8 0-3.4 0-4.8 .1c-1.4 .1-2.6 .2-3.6 .5c-1.1 .2-2 .6-2.7 1.1c-0.8 .5-1.4 1-1.8 1.7c-0.5 .6-0.8 1.5-1 2.7c-0.2 1.1-0.3 2.5-0.3 4.1h26.7c0-2.1-0.2-3.8-0.7-5.1c-0.5-1.2-1.2-2.2-2.2-3c-1-0.8-2.3-1.4-3.9-1.7c-1.5-0.3-3.5-0.4-5.7-0.4Zm58.8 28.5h-5.3v-18.1c0-1.9-0.2-3.5-0.4-4.9c-0.3-1.3-0.8-2.4-1.5-3.2c-0.8-0.8-1.9-1.4-3.3-1.8c-1.4-0.3-3.2-0.5-5.5-0.5c-2.5 0-4.6 .2-6.2 .6c-1.6 .4-2.9 1-3.8 1.8c-0.9 .7-1.6 1.6-2 2.7c-0.3 1.1-0.5 2.2-0.5 3.5v19.9h-5.3v-32.1h5.3v5.1c0-0.1 .1-0.2 .3-0.6c.1-0.3 .4-0.6 .7-1.1c.4-0.4 .9-0.9 1.6-1.4c.7-0.5 1.5-1 2.6-1.4c1-0.4 2.3-0.8 3.8-1c1.4-0.3 3.2-0.5 5.3-0.5c2 0 3.7 .2 5.2 .4c1.4 .3 2.7 .6 3.8 1.1c1 .5 1.9 1.1 2.5 1.9c.7 .7 1.2 1.5 1.6 2.5c.3-0.5 .8-1.1 1.5-1.8c.6-0.6 1.6-1.3 2.8-1.9c1.2-0.6 2.7-1.1 4.5-1.5c1.8-0.4 4-0.7 6.6-0.7c2.1 0 3.9 .2 5.4 .5c1.6 .3 2.9 .7 3.9 1.3c1.1 .5 1.9 1.2 2.6 2.1c.6 .8 1.1 1.8 1.5 2.9c.3 1.1 .5 2.3 .6 3.7c.1 1.3 .2 2.8 .2 4.4v18.1h-5.3v-18.1c0-1.9-0.2-3.5-0.4-4.9c-0.3-1.3-0.8-2.4-1.5-3.2c-0.8-0.8-1.9-1.4-3.3-1.8c-1.4-0.3-3.2-0.5-5.5-0.5c-2.5 0-4.6 .2-6.2 .6c-1.6 .4-2.9 1-3.8 1.8c-0.9 .7-1.6 1.6-2 2.7c-0.3 1.1-0.5 2.2-0.5 3.5Zm55.2 .6c-2.5 0-4.7-0.2-6.4-0.5c-1.7-0.3-3.1-0.7-4.1-1.1c-1.1-0.4-1.9-1-2.5-1.9c-0.5-0.9-0.9-1.5-1.2-2v4.9h-5.4v-42.8h5.4v13.8c.2-0.4 .6-0.8 1.2-1.3c.5-0.4 1.4-0.9 2.5-1.3c1-0.4 2.4-0.7 4.1-1c1.8-0.2 3.9-0.4 6.4-0.4c3.6 0 6.6 .3 9.1 .9c2.5 .5 4.5 1.4 6.1 2.7c1.5 1.3 2.7 3 3.4 5.2c.7 2.2 1 4.9 1 8.2c0 3.3-0.3 5.9-1 8.1c-0.7 2.1-1.9 3.8-3.4 5.1c-1.6 1.2-3.6 2.1-6.1 2.6c-2.5 .6-5.5 .8-9.1 .8Zm0-4.2c2.1 0 3.9 0 5.4-0.2c1.5-0.1 2.8-0.3 3.9-0.7c1-0.3 1.9-0.8 2.5-1.3c.7-0.6 1.2-1.4 1.6-2.3c.3-0.9 .6-2 .7-3.3c.1-1.3 .2-2.8 .2-4.6c0-1.7-0.1-3.2-0.2-4.5c-0.1-1.3-0.4-2.4-0.7-3.4c-0.4-0.9-0.9-1.6-1.6-2.2c-0.6-0.7-1.5-1.1-2.5-1.5c-1.1-0.3-2.4-0.5-3.9-0.7c-1.5-0.1-3.3-0.2-5.4-0.2c-1.8 0-3.3 .1-4.7 .2c-1.4 0-2.7 .2-3.7 .5c-1.1 .3-2 .7-2.7 1.3c-0.7 .6-1.3 1.3-1.8 2.2c-0.5 1-0.8 2.1-1 3.5c-0.2 1.4-0.3 3-0.3 4.9c0 1.9 .1 3.5 .3 4.9c.2 1.3 .5 2.4 1 3.3c.5 1 1.1 1.7 1.8 2.2c.7 .6 1.6 1 2.7 1.3c1 .2 2.3 .4 3.7 .5c1.4 .1 2.9 .1 4.7 .1Zm53.5-18c0-1.4-0.1-2.5-0.3-3.4c-0.2-0.8-0.7-1.5-1.4-2.1c-0.7-0.5-1.8-0.9-3.2-1.1c-1.4-0.2-3.4-0.3-5.8-0.3c-2.4 0-4.4 .2-5.9 .6c-1.5 .4-2.7 1-3.5 1.8c-0.9 .8-1.4 1.7-1.7 2.7c-0.4 1.1-0.5 2.3-0.5 3.6v19.8h-5.3v-32.1h5.3v5.1c.2-0.5 .5-1.2 1-1.9c.5-0.7 1.3-1.3 2.3-1.9c1-0.6 2.3-1.1 4-1.5c1.6-0.4 3.6-0.7 6.1-0.7c2.7 0 5 .3 6.7 .8c1.8 .5 3.1 1.2 4.1 2.2c1 .9 1.7 2.1 2 3.5c.3 1.4 .5 3 .5 4.9Zm26.7 22.2c-3.6 0-6.6-0.2-9.1-0.7c-2.5-0.5-4.5-1.4-6.1-2.6c-1.5-1.2-2.7-2.8-3.4-4.8c-0.7-2-1-4.6-1-7.6c0-3.5 .3-6.4 1-8.7c.7-2.3 1.9-4.2 3.4-5.5c1.6-1.4 3.6-2.3 6.1-2.8c2.5-0.6 5.5-0.9 9.1-0.9c2.5 0 4.7 .2 6.6 .6c1.9 .4 3.4 .9 4.8 1.6c1.3 .7 2.4 1.6 3.2 2.6c.8 1 1.5 2 2 3.1c.4 1.1 .8 2.4 .9 3.9c.2 1.5 .3 3.1 .3 4.7l-0.5 1.8h-31.6c0 2.5 .3 4.5 .8 6c.4 1.6 1.2 2.7 2.3 3.5c1.2 .7 2.6 1.2 4.4 1.3c1.9 .2 4.1 .3 6.8 .3c2.4 0 4.5 0 6.1-0.2c1.6-0.1 2.8-0.4 3.8-0.8c.9-0.4 1.6-0.9 2-1.6c.4-0.7 .5-1.6 .5-2.7h5.4c0 1.7-0.3 3.2-0.9 4.4c-0.6 1.2-1.6 2.2-3 3c-1.4 .7-3.2 1.3-5.5 1.6c-2.3 .3-5.1 .5-8.4 .5Zm0-29.1c-1.8 0-3.4 0-4.8 .1c-1.4 .1-2.6 .2-3.7 .5c-1 .2-1.9 .6-2.7 1.1c-0.7 .5-1.3 1-1.8 1.7c-0.4 .6-0.7 1.5-1 2.7c-0.2 1.1-0.3 2.5-0.3 4.1h26.7c0-2.1-0.2-3.8-0.6-5.1c-0.5-1.2-1.2-2.2-2.2-3c-1-0.8-2.3-1.4-3.9-1.7c-1.6-0.3-3.5-0.4-5.7-0.4Zm-276.6 113.2c0-1.2 .1-2.3 .1-3.4c.1-1.1 .2-2.1 .4-3.1c.2-1.1 .5-2 .9-2.9c.3-0.9 .9-1.7 1.5-2.3c.7-0.7 1.5-1.3 2.5-1.7c1-0.5 2.2-0.8 3.5-0.9l28.5-2.7c.9 0 1.7-0.2 2.4-0.4c.7-0.1 1.2-0.5 1.6-1c.5-0.6 .8-1.3 1-2.4c.2-1 .4-2.4 .4-4.2c0-1.4-0.2-2.7-0.4-3.7c-0.2-1-0.6-1.9-1.1-2.5c-0.5-0.7-1.2-1.2-2.1-1.6c-0.9-0.3-2-0.6-3.3-0.8c-1.3-0.1-2.9-0.2-4.7-0.2c-1.8-0.1-3.8-0.1-6.2-0.1c-3.3 0-6 .1-8.3 .2c-2.2 .1-4.1 .3-5.5 .6c-1.5 .4-2.6 .8-3.4 1.3c-0.7 .6-1.3 1.3-1.7 2.1c-0.3 .9-0.6 1.9-0.6 3.1c-0.1 1.2-0.1 2.7-0.1 4.3h-5.4c0-2.7 .3-4.9 .8-6.8c.5-1.8 1.2-3.3 2.1-4.5c1-1.2 2.2-2.1 3.6-2.7c1.4-0.7 3-1.2 4.9-1.5c1.8-0.3 3.9-0.4 6.2-0.5c2.2 0 4.7 0 7.4 0c2.6 0 5.1 0 7.3 .1c2.1 .1 4.1 .3 5.8 .6c1.7 .3 3.2 .7 4.5 1.3c1.2 .5 2.3 1.3 3.1 2.3c.8 1 1.4 2.2 1.8 3.7c.4 1.5 .6 3.2 .6 5.3c0 1.8-0.1 3.4-0.4 4.9c-0.2 1.4-0.7 2.7-1.3 3.8c-0.7 1.1-1.6 1.9-2.8 2.6c-1.1 .6-2.6 1-4.4 1.2l-28.5 2.7c-1.3 .1-2.4 .3-3.1 .7c-0.7 .4-1.2 1-1.6 1.8c-0.3 .8-0.5 1.8-0.5 3.2c-0.1 1.3-0.1 2.9-0.1 4.9h41.8v4.5h-47.2Zm85.6-38.3c3.2 0 6 .2 8.2 .6c2.3 .4 4.1 1 5.5 1.8c1.5 .8 2.6 1.8 3.4 3c.8 1.2 1.3 2.7 1.7 4.3c.4 1.7 .6 3.5 .6 5.6c.1 2.1 .1 4.4 .1 6.9c0 2.5 0 4.8-0.1 6.9c0 2.1-0.2 4-0.6 5.6c-0.4 1.7-0.9 3.1-1.7 4.3c-0.8 1.3-1.9 2.3-3.4 3.1c-1.4 .8-3.2 1.4-5.5 1.8c-2.2 .4-5 .6-8.2 .6h-10.7c-3.3 0-6.1-0.2-8.3-0.6c-2.2-0.4-4.1-1-5.5-1.8c-1.5-0.8-2.6-1.8-3.4-3.1c-0.8-1.2-1.3-2.6-1.7-4.3c-0.4-1.6-0.6-3.5-0.6-5.6c-0.1-2.1-0.1-4.4-0.1-6.9c0-2.5 0-4.8 .1-6.9c0-2.1 .2-3.9 .6-5.6c.4-1.6 .9-3.1 1.7-4.3c.8-1.2 1.9-2.2 3.4-3c1.4-0.8 3.3-1.4 5.5-1.8c2.2-0.4 5-0.6 8.3-0.6Zm0 40c2.3 0 4.3 0 6-0.2c1.6-0.1 2.9-0.4 4-0.8c1-0.4 1.8-1.1 2.4-1.9c.6-0.8 1-1.8 1.3-3.1c.2-1.3 .4-3 .4-4.9c.1-1.9 .1-4.2 .1-6.9c0-2.6 0-4.9-0.1-6.9c0-1.9-0.2-3.5-0.4-4.8c-0.3-1.3-0.7-2.4-1.3-3.2c-0.6-0.8-1.4-1.4-2.4-1.8c-1.1-0.5-2.4-0.7-4-0.9c-1.7-0.1-3.7-0.2-6-0.2h-10.7c-2.4 0-4.4 .1-6 .2c-1.7 .2-3 .4-4.1 .9c-1 .4-1.8 1-2.4 1.8c-0.6 .8-1 1.9-1.3 3.2c-0.2 1.3-0.4 2.9-0.4 4.8c-0.1 2-0.1 4.3-0.1 6.9c0 2.7 .1 5 .1 6.9c0 1.9 .2 3.6 .5 4.9c.2 1.3 .6 2.3 1.2 3.1c.6 .8 1.4 1.5 2.4 1.9c1.1 .4 2.4 .7 4.1 .8c1.6 .2 3.6 .2 6 .2Zm40-39.2h7.1v42.8h-5.3v-38.3l-12.5 10.7l-2.6-3.6Zm39.2 39.2c2.9 0 5.3 0 7.3-0.1c2-0.1 3.7-0.3 5-0.7c1.3-0.3 2.3-0.8 3.1-1.5c.7-0.7 1.3-1.6 1.6-2.8c.4-1.2 .6-2.7 .7-4.5c.1-1.7 .1-3.9 .1-6.4c-1.4 .9-3.3 1.5-5.6 2c-2.3 .5-5.2 .7-8.6 .7h-9c-4 0-7.2-0.3-9.8-0.9c-2.5-0.5-4.5-1.3-6-2.5c-1.4-1.1-2.4-2.5-2.9-4.1c-0.6-1.7-0.8-3.7-0.8-5.9c0-2.2 .2-4.2 .8-5.8c.5-1.7 1.5-3.1 2.9-4.2c1.5-1.1 3.5-1.9 6-2.5c2.6-0.6 5.8-0.8 9.8-0.8h9c3.2 0 6 .2 8.2 .6c2.3 .4 4.1 1 5.6 1.8c1.4 .8 2.5 1.8 3.3 3c.8 1.2 1.4 2.7 1.7 4.3c.4 1.7 .6 3.5 .7 5.6c0 2.1 .1 4.4 .1 6.9c0 2.7-0.1 5.1-0.2 7.2c0 2.2-0.3 4.1-0.7 5.7c-0.4 1.7-1.1 3.1-2 4.3c-1 1.2-2.3 2.1-4 2.9c-1.7 .7-3.9 1.3-6.5 1.6c-2.7 .4-5.9 .6-9.8 .6c-3.3 0-6.1-0.1-8.5-0.4c-2.4-0.2-4.5-0.6-6.2-1.1c-1.7-0.4-3.1-1-4.2-1.7c-1.1-0.7-2-1.6-2.6-2.5c-0.6-0.9-1-1.9-1.3-3.1c-0.2-1.1-0.3-2.3-0.3-3.7h4.4c0 .8 .1 1.5 .2 2.2c.1 .7 .3 1.3 .7 1.9c.4 .6 1 1.1 1.8 1.6c.8 .5 1.9 .9 3.2 1.3c1.4 .3 3.2 .6 5.2 .8c2.1 .1 4.6 .2 7.6 .2Zm3.6-17.8c2.9 0 5.3 0 7.1-0.2c1.9-0.1 3.3-0.4 4.4-0.9c1-0.5 1.7-1.2 2.1-2.1c.4-1 .6-2.3 .6-3.9c0-2.2-0.2-4-0.6-5.4c-0.4-1.4-1.1-2.5-2.1-3.3c-1.1-0.8-2.5-1.3-4.4-1.6c-1.8-0.2-4.2-0.4-7.1-0.4h-9c-2 0-3.8 .1-5.4 .2c-1.5 .1-2.7 .3-3.8 .5c-1 .3-1.9 .6-2.6 1.1c-0.6 .4-1.1 1-1.5 1.6c-0.3 .7-0.6 1.5-0.7 2.4c-0.1 .9-0.2 1.9-0.2 3.1c0 1.2 .1 2.2 .2 3.1c.1 .9 .4 1.7 .7 2.4c.4 .6 .9 1.2 1.6 1.6c.6 .5 1.5 .8 2.5 1.1c1.1 .3 2.4 .4 3.9 .6c1.5 .1 3.3 .1 5.3 .1Z" transform="translate(300,292.6)" style="animation: 19s linear infinite both a11_o;"/></svg>