<?xml version="1.0" encoding="UTF-8" standalone="no"?>
<!-- Created with Keyshape -->
<svg xmlns="http://www.w3.org/2000/svg" class="thumb" width="1000" height="1000" viewBox="0,0,600,600">
    <style>
@keyframes neoteva_t { 0% { transform: translate(-43.9937px,245.1298px) scale(1.4069,1.4069); } 52.6315% { transform: translate(-43.9937px,245.1298px) scale(1.4069,1.4069); } 100% { transform: translate(-43.9937px,245.1298px) scale(1.4069,1.4069); } }
@keyframes neoteva_o { 0% { opacity: 1; } 52.6316% { opacity: 1; animation-timing-function: cubic-bezier(0.47,0,0.745,0.715); } 62.6316% { opacity: 0; } 100% { opacity: 0; } }
@keyframes a0_t { 0% { transform: translateX(25px); } 18.421% { transform: translateX(25px); animation-timing-function: cubic-bezier(0.39,0.575,0.565,1); } 26.3157% { transform: translateX(85.5167px); } 100% { transform: translateX(85.5167px); } }
@keyframes left_t { 0% { transform: translateY(4.3696px) rotate(43.997593deg) skewX(-0.002983deg) scale(0.848799,1.305376); } 26.3157% { transform: translateY(4.3696px) rotate(43.997593deg) skewX(-0.002983deg) scale(0.848799,1.305376); } 100% { transform: translateY(4.3696px) rotate(43.997593deg) skewX(-0.002983deg) scale(0.848799,1.305376); } }
@keyframes left_o { 0% { opacity: 0; } 18.4211% { opacity: 0; animation-timing-function: cubic-bezier(0.445,0.05,0.55,0.95); } 21.0526% { opacity: 1; animation-timing-function: cubic-bezier(0.445,0.05,0.55,0.95); } 23.6842% { opacity: 0; animation-timing-function: cubic-bezier(0.445,0.05,0.55,0.95); } 26.3158% { opacity: 1; animation-timing-function: cubic-bezier(0.445,0.05,0.55,0.95); } 31.5789% { opacity: 0; animation-timing-function: cubic-bezier(0.445,0.05,0.55,0.95); } 36.8421% { opacity: 1; animation-timing-function: cubic-bezier(0.445,0.05,0.55,0.95); } 42.1053% { opacity: 0; animation-timing-function: cubic-bezier(0.445,0.05,0.55,0.95); } 47.3684% { opacity: 1; } 100% { opacity: 1; } }
@keyframes right_t { 0% { transform: translate(453px,73.6304px) rotate(-136.002407deg) skewX(-0.002983deg) scale(0.848799,1.305376); } 18.421% { transform: translate(453px,73.6304px) rotate(-136.002407deg) skewX(-0.002983deg) scale(0.848799,1.305376); } 26.3157% { transform: translate(403.4833px,73.6304px) rotate(-136.002407deg) skewX(-0.002983deg) scale(0.848799,1.305376); } 100% { transform: translate(403.4833px,73.6304px) rotate(-136.002407deg) skewX(-0.002983deg) scale(0.848799,1.305376); } }
@keyframes right_o { 0% { opacity: 0; } 18.4211% { opacity: 0; } 21.0526% { opacity: 1; } 23.6842% { opacity: 0; } 26.3158% { opacity: 1; animation-timing-function: cubic-bezier(0.445,0.05,0.55,0.95); } 31.5789% { opacity: 0; animation-timing-function: cubic-bezier(0.445,0.05,0.55,0.95); } 36.8421% { opacity: 1; animation-timing-function: cubic-bezier(0.445,0.05,0.55,0.95); } 42.1053% { opacity: 0; animation-timing-function: cubic-bezier(0.445,0.05,0.55,0.95); } 47.3684% { opacity: 1; } 100% { opacity: 1; } }
@keyframes a1_t { 0% { transform: translateX(0px); animation-timing-function: cubic-bezier(0.39,0.575,0.565,1); } 15.7894% { transform: translateX(219.3356px); } 100% { transform: translateX(219.3356px); } }
@keyframes dot_t { 0% { transform: translateY(30.3819px) scale(0.0927,0.0927); } 15.7894% { transform: translateY(30.3819px) scale(0.0927,0.0927); } 100% { transform: translateY(30.3819px) scale(0.0927,0.0927); } }
@keyframes dot_o { 0% { opacity: 1; animation-timing-function: cubic-bezier(0.445,0.05,0.55,0.95); } 2.6316% { opacity: 0; animation-timing-function: cubic-bezier(0.445,0.05,0.55,0.95); } 5.2632% { opacity: 1; animation-timing-function: cubic-bezier(0.445,0.05,0.55,0.95); } 7.8947% { opacity: 0; animation-timing-function: cubic-bezier(0.445,0.05,0.55,0.95); } 10.5263% { opacity: 1; animation-timing-function: cubic-bezier(0.445,0.05,0.55,0.95); } 13.1579% { opacity: 0; animation-timing-function: cubic-bezier(0.445,0.05,0.55,0.95); } 15.7895% { opacity: 1; animation-timing-function: cubic-bezier(0.445,0.05,0.55,0.95); } 18.4211% { opacity: 0; animation-timing-function: cubic-bezier(0.445,0.05,0.55,0.95); } 21.0526% { opacity: 1; animation-timing-function: cubic-bezier(0.445,0.05,0.55,0.95); } 23.6842% { opacity: 0; animation-timing-function: cubic-bezier(0.445,0.05,0.55,0.95); } 26.3158% { opacity: 1; animation-timing-function: cubic-bezier(0.445,0.05,0.55,0.95); } 31.5789% { opacity: 0; animation-timing-function: cubic-bezier(0.445,0.05,0.55,0.95); } 36.8421% { opacity: 1; animation-timing-function: cubic-bezier(0.445,0.05,0.55,0.95); } 42.1053% { opacity: 0; animation-timing-function: cubic-bezier(0.445,0.05,0.55,0.95); } 47.3684% { opacity: 1; } 100% { opacity: 1; } }
@keyframes a2_t {  }
@keyframes a3_t { 0% { transform: translateX(98.3047px); } 5.2631% { transform: translateX(98.3047px); } 100% { transform: translateX(98.3047px); } }
@keyframes neo_t { 0% { transform: translateY(300px) scale(0.5,0.5); } 31.5789% { transform: translateY(300px) scale(0.5,0.5); animation-timing-function: cubic-bezier(0.145,1,0.565,1); } 36.8421% { transform: translateY(1.0131px) scale(0.5,0.5); } 100% { transform: translateY(1.0131px) scale(0.5,0.5); } }
@keyframes a4_t { 0% { transform: translateX(245.9238px); } 5.2631% { transform: translateX(245.9238px); } 100% { transform: translateX(245.9238px); } }
@keyframes teva_t { 0% { transform: translateY(-300px) scale(0.5,0.5); } 39.4736% { transform: translateY(-300px) scale(0.5,0.5); animation-timing-function: cubic-bezier(0.16,0.97,0.565,1); } 44.7368% { transform: translateY(1.0131px) scale(0.5,0.5); } 100% { transform: translateY(1.0131px) scale(0.5,0.5); } }
@keyframes a5_o { 0% { opacity: 0; } 62.6316% { opacity: 0; } 68.4211% { opacity: 1; } 84.2105% { opacity: 1; } 89.4737% { opacity: 0; } 100% { opacity: 0; } }
    </style>
    <g elementtype="background" style="mix-blend-mode: normal;">
        <rect width="600" height="600" fill="url('#linearGradientSjy1vow654')"/>
    </g>
    <g id="neoteva" opacity="1" transform="translate(-43.9937,245.13) scale(1.4069,1.4069)" style="animation: 19s linear infinite both neoteva_t, 19s linear infinite both neoteva_o;">
        <g id="left" style="animation: 19s linear infinite both a0_t;">
            <g opacity="0" transform="translate(25,4.3696) rotate(43.9976) skewX(-0.00298268) scale(0.848799,1.30538)" style="mix-blend-mode: normal; animation: 19s linear infinite both left_t, 19s linear infinite both left_o;">
                <svg width="44.675" height="44.675" viewBox="4.8309999999999995,51.541,44.67500000000001,44.67500000000001">
                    <g/>
                    <g/>
                    <g>
                        <path d="M15.883,56.541L9.831,57.13C11.498,75.189,25.862,89.56,43.915,91.216L44.506,85.173C29.336,83.756,17.287,71.713,15.883,56.541Z" fill="#e78200" stroke="none" style=""/>
                    </g>
                </svg>
            </g>
        </g>
        <g id="right" opacity="0" transform="translate(453,73.6304) rotate(-136.002) skewX(-0.00298268) scale(0.848799,1.30538)" style="animation: 19s linear infinite both right_t, 19s linear infinite both right_o;">
            <svg width="44.675" height="44.675" viewBox="4.8309999999999995,51.541,44.67500000000001,44.67500000000001">
                <g/>
                <g/>
                <g>
                    <path d="M15.883,56.541L9.831,57.13C11.498,75.189,25.862,89.56,43.915,91.216L44.506,85.173C29.336,83.756,17.287,71.713,15.883,56.541Z" fill="#e78200" stroke="none" style=""/>
                </g>
            </svg>
        </g>
        <g id="dot" style="animation: 19s linear infinite both a1_t;">
            <g opacity="1" transform="translate(0,30.3819) scale(0.0927,0.0927)" style="animation: 19s linear infinite both dot_t, 19s linear infinite both dot_o;">
                <svg width="187.034" height="186.77" viewBox="-5.131860901213205,-5,187.0337218024264,186.77" class="thumb" opacity="1" style="animation: 1s linear both a2_t;">
                    <g/>
                    <g/>
                    <g>
                        <path fill="#e78200" stroke="none" d="M88.385,0C88.385,48.8137,48.8137,88.385,0,88.385C-48.8137,88.385,-88.385,48.8137,-88.385,0C-88.385,-48.8137,-48.8137,-88.385,0,-88.385C48.8137,-88.385,88.385,-48.8137,88.385,0Z" transform="translate(0,0) translate(88.385,88.385)"/>
                    </g>
                </svg>
            </g>
        </g>
        <g id="neo" style="animation: 19s linear infinite both a3_t;">
            <g transform="translate(98.3047,300) scale(0.5,0.5)" style="animation: 19s linear infinite both neo_t;">
                <svg width="232.861" height="202" overflow="visible">
                    <g transform="translate(0,106.5)">
                        <path d="M71.88,0L62.5,0L62.5,-31.25C62.5,-34.73,62.24,-37.6667,61.72,-40.06C61.2,-42.4533,60.1567,-44.3833,58.59,-45.85C57.03,-47.3167,54.8167,-48.3733,51.95,-49.02C49.09,-49.6733,45.3167,-50,40.63,-50L40.63,-50C35.55,-50,31.39,-49.6267,28.15,-48.88C24.91,-48.1267,22.3633,-47.0667,20.51,-45.7C18.65,-44.3333,17.37,-42.69,16.67,-40.77C15.9767,-38.85,15.63,-36.72,15.63,-34.38L15.63,-34.38L15.63,0L6.25,0L6.25,-56.25L15.63,-56.25L15.63,-46.88C16.31,-48.4733,17.2833,-49.8467,18.55,-51C19.8233,-52.1533,21.2567,-53.14,22.85,-53.96C24.4433,-54.7733,26.17,-55.43,28.03,-55.93C29.8833,-56.4367,31.7367,-56.8267,33.59,-57.1C35.45,-57.38,37.25,-57.57,38.99,-57.67C40.73,-57.7633,42.3167,-57.81,43.75,-57.81L43.75,-57.81C47.9167,-57.81,51.5067,-57.55,54.52,-57.03C57.5267,-56.51,60.08,-55.7467,62.18,-54.74C64.28,-53.7267,65.9667,-52.4733,67.24,-50.98C68.5067,-49.48,69.49,-47.7467,70.19,-45.78C70.89,-43.8067,71.3533,-41.6067,71.58,-39.18C71.8067,-36.76,71.92,-34.1167,71.92,-31.25L71.92,-31.25L71.88,0ZM117.234,1.07L117.234,1.07C110.987,1.07,105.68,0.64,101.314,-0.22C96.9538,-1.08,93.4072,-2.57,90.6738,-4.69C87.9405,-6.80333,85.9538,-9.63333,84.7138,-13.18C83.4805,-16.7333,82.8638,-21.1933,82.8638,-26.56L82.8638,-26.56C82.8638,-32.7133,83.4805,-37.8,84.7138,-41.82C85.9538,-45.84,87.9405,-49.04,90.6738,-51.42C93.4072,-53.7933,96.9538,-55.4533,101.314,-56.4C105.68,-57.34,110.987,-57.81,117.234,-57.81L117.234,-57.81C121.694,-57.81,125.56,-57.4867,128.834,-56.84C132.107,-56.1867,134.907,-55.24,137.234,-54C139.56,-52.7667,141.447,-51.27,142.894,-49.51C144.34,-47.7567,145.48,-45.91,146.314,-43.97C147.14,-42.03,147.71,-39.76,148.024,-37.16C148.33,-34.5533,148.484,-31.8033,148.484,-28.91L148.484,-28.91L147.704,-25.78L92.2338,-25.78C92.2338,-21.4867,92.6572,-17.9633,93.5038,-15.21C94.3505,-12.4567,95.7505,-10.4467,97.7038,-9.18C99.6572,-7.91333,102.23,-7.10667,105.424,-6.76C108.61,-6.42,112.547,-6.25,117.234,-6.25L117.234,-6.25C121.534,-6.25,125.09,-6.37333,127.904,-6.62C130.724,-6.86,132.964,-7.32333,134.624,-8.01C136.284,-8.69,137.447,-9.64,138.114,-10.86C138.78,-12.0867,139.114,-13.6767,139.114,-15.63L139.114,-15.63L148.484,-15.63C148.484,-12.5967,147.957,-10.0167,146.904,-7.89C145.844,-5.75667,144.094,-4.03,141.654,-2.71C139.207,-1.39,135.99,-0.43,132.004,0.17C128.017,0.77,123.094,1.07,117.234,1.07ZM117.234,-50L117.234,-50C114.114,-50,111.324,-49.9333,108.864,-49.8C106.404,-49.6733,104.254,-49.39,102.414,-48.95C100.574,-48.51,99.0038,-47.8767,97.7038,-47.05C96.4038,-46.2167,95.3538,-45.24,94.5538,-44.12C93.7605,-42.9933,93.1738,-41.4133,92.7938,-39.38C92.4205,-37.3467,92.2338,-34.8967,92.2338,-32.03L92.2338,-32.03L139.114,-32.03C139.114,-35.8367,138.707,-38.8233,137.894,-40.99C137.08,-43.1567,135.794,-44.94,134.034,-46.34C132.274,-47.74,130.01,-48.7,127.244,-49.22C124.477,-49.74,121.14,-50,117.234,-50ZM159.426,-28.52L159.426,-28.52C159.426,-34.28,160.043,-39.0467,161.276,-42.82C162.516,-46.6,164.503,-49.5967,167.236,-51.81C169.97,-54.0233,173.516,-55.5767,177.876,-56.47C182.243,-57.3633,187.55,-57.81,193.796,-57.81L193.796,-57.81C200.05,-57.81,205.356,-57.3633,209.716,-56.47C214.076,-55.5767,217.626,-54.0233,220.366,-51.81C223.1,-49.5967,225.083,-46.6,226.316,-42.82C227.556,-39.0467,228.176,-34.28,228.176,-28.52L228.176,-28.52C228.176,-22.7533,227.556,-17.9667,226.316,-14.16C225.083,-10.3533,223.1,-7.32667,220.366,-5.08C217.626,-2.83333,214.076,-1.24667,209.716,-0.32C205.356,0.606667,200.05,1.07,193.796,1.07L193.796,1.07C187.55,1.07,182.243,0.606667,177.876,-0.32C173.516,-1.24667,169.97,-2.83333,167.236,-5.08C164.503,-7.32667,162.516,-10.3533,161.276,-14.16C160.043,-17.9667,159.426,-22.7533,159.426,-28.52ZM168.796,-28.52L168.796,-28.52C168.796,-25.3933,168.91,-22.6733,169.136,-20.36C169.37,-18.0467,169.803,-16.06,170.436,-14.4C171.07,-12.74,171.956,-11.39,173.096,-10.35C174.236,-9.31,175.733,-8.48,177.586,-7.86C179.44,-7.24,181.693,-6.81667,184.346,-6.59C187,-6.36333,190.15,-6.25,193.796,-6.25L193.796,-6.25C196.923,-6.25,199.716,-6.32333,202.176,-6.47C204.63,-6.61667,206.776,-6.95,208.616,-7.47C210.456,-7.99,212.026,-8.73,213.326,-9.69C214.633,-10.65,215.683,-11.96,216.476,-13.62C217.276,-15.28,217.863,-17.3233,218.236,-19.75C218.61,-22.1767,218.796,-25.1,218.796,-28.52L218.796,-28.52C218.796,-31.8667,218.61,-34.72,218.236,-37.08C217.863,-39.4467,217.276,-41.4267,216.476,-43.02C215.683,-44.6133,214.633,-45.8733,213.326,-46.8C212.026,-47.7267,210.456,-48.4267,208.616,-48.9C206.776,-49.3733,204.63,-49.6733,202.176,-49.8C199.716,-49.9333,196.923,-50,193.796,-50L193.796,-50C190.676,-50,187.886,-49.9333,185.426,-49.8C182.966,-49.6733,180.816,-49.3733,178.976,-48.9C177.136,-48.4267,175.566,-47.7267,174.266,-46.8C172.966,-45.8733,171.916,-44.6133,171.116,-43.02C170.323,-41.4267,169.736,-39.4467,169.356,-37.08C168.983,-34.72,168.796,-31.8667,168.796,-28.52Z" data-textpath="neo" data-text-anchor="middle" data-font-size="100" data-letterspacing="0" data-side="left" data-offset="0.5" data-dx="0" data-dy="0" data-xmlspace="preserve" data-href="" data-font="Michroma" data-font-src="/Content/clientfonts/michroma.woff" data-font-scale="contain" data-x="0" data-y="0" fill="#7e7e7e"/>
                    </g>
                </svg>
            </g>
        </g>
        <g id="teva" style="animation: 19s linear infinite both a4_t;">
            <g transform="translate(245.924,-300) scale(0.5,0.5)" style="animation: 19s linear infinite both teva_t;">
                <svg width="290.381" height="202" overflow="visible">
                    <g transform="translate(0,106.5)">
                        <path d="M53.13,-25L60.94,-25C60.94,-20.2133,60.55,-16.2167,59.77,-13.01C58.9833,-9.80333,57.67,-7.24,55.83,-5.32C53.9967,-3.4,51.58,-2.03333,48.58,-1.22C45.5867,-0.406667,41.8933,0,37.5,0L37.5,0C33.2333,0,29.6533,-0.326667,26.76,-0.98C23.86,-1.62667,21.5167,-2.73333,19.73,-4.3C17.9367,-5.86,16.65,-7.94333,15.87,-10.55C15.09,-13.15,14.7,-16.4033,14.7,-20.31L14.7,-20.31L14.7,-48.54L3.13,-48.54L3.13,-56.25L14.7,-56.25L14.7,-71.63L24.07,-71.63L24.07,-56.25L59.38,-56.25L59.38,-48.54L24.07,-48.54L24.07,-20.31C24.07,-17.19,24.3067,-14.7833,24.78,-13.09C25.2533,-11.3967,26.01,-10.16,27.05,-9.38C28.09,-8.59333,29.4667,-8.13667,31.18,-8.01C32.8867,-7.87667,34.9767,-7.81,37.45,-7.81L37.45,-7.81C39.4033,-7.81,41.1533,-7.84333,42.7,-7.91C44.2467,-7.97667,45.5967,-8.18,46.75,-8.52C47.91,-8.86,48.8967,-9.38,49.71,-10.08C50.5233,-10.78,51.18,-11.7667,51.68,-13.04C52.1867,-14.3067,52.5533,-15.91,52.78,-17.85C53.0133,-19.7833,53.13,-22.1667,53.13,-25L53.13,-25ZM103.122,1.07L103.122,1.07C96.8758,1.07,91.5692,0.64,87.2025,-0.22C82.8425,-1.08,79.2958,-2.57,76.5625,-4.69C73.8292,-6.80333,71.8425,-9.63333,70.6025,-13.18C69.3692,-16.7333,68.7525,-21.1933,68.7525,-26.56L68.7525,-26.56C68.7525,-32.7133,69.3692,-37.8,70.6025,-41.82C71.8425,-45.84,73.8292,-49.04,76.5625,-51.42C79.2958,-53.7933,82.8425,-55.4533,87.2025,-56.4C91.5692,-57.34,96.8758,-57.81,103.122,-57.81L103.122,-57.81C107.582,-57.81,111.449,-57.4867,114.722,-56.84C117.996,-56.1867,120.796,-55.24,123.122,-54C125.449,-52.7667,127.336,-51.27,128.782,-49.51C130.229,-47.7567,131.369,-45.91,132.202,-43.97C133.029,-42.03,133.599,-39.76,133.912,-37.16C134.219,-34.5533,134.373,-31.8033,134.373,-28.91L134.373,-28.91L133.593,-25.78L78.1225,-25.78C78.1225,-21.4867,78.5458,-17.9633,79.3925,-15.21C80.2392,-12.4567,81.6392,-10.4467,83.5925,-9.18C85.5458,-7.91333,88.1192,-7.10667,91.3125,-6.76C94.4992,-6.42,98.4358,-6.25,103.122,-6.25L103.122,-6.25C107.423,-6.25,110.979,-6.37333,113.793,-6.62C116.613,-6.86,118.853,-7.32333,120.513,-8.01C122.172,-8.69,123.336,-9.64,124.002,-10.86C124.669,-12.0867,125.002,-13.6767,125.002,-15.63L125.002,-15.63L134.373,-15.63C134.373,-12.5967,133.846,-10.0167,132.793,-7.89C131.733,-5.75667,129.983,-4.03,127.543,-2.71C125.096,-1.39,121.879,-0.43,117.892,0.17C113.906,0.77,108.983,1.07,103.122,1.07ZM103.122,-50L103.122,-50C100.002,-50,97.2125,-49.9333,94.7525,-49.8C92.2925,-49.6733,90.1425,-49.39,88.3025,-48.95C86.4625,-48.51,84.8925,-47.8767,83.5925,-47.05C82.2925,-46.2167,81.2425,-45.24,80.4425,-44.12C79.6492,-42.9933,79.0625,-41.4133,78.6825,-39.38C78.3092,-37.3467,78.1225,-34.8967,78.1225,-32.03L78.1225,-32.03L125.002,-32.03C125.002,-35.8367,124.596,-38.8233,123.782,-40.99C122.969,-43.1567,121.683,-44.94,119.922,-46.34C118.162,-47.74,115.899,-48.7,113.132,-49.22C110.366,-49.74,107.029,-50,103.122,-50ZM140.63,-56.25L170.31,0L182.81,0L212.5,-56.25L201.56,-56.25L176.56,-6.25L151.56,-56.25L140.63,-56.25ZM274.76,0L274.76,-7.71C274.66,-7.32333,273.927,-6.35,272.56,-4.79L272.56,-4.79C271.58,-3.61667,270.277,-2.58,268.65,-1.68C267.023,-0.786667,264.85,-0.0866667,262.13,0.42C259.417,0.92,255.847,1.17,251.42,1.17L251.42,1.17C245.527,1.17,240.497,0.87,236.33,0.27C232.163,-0.33,228.76,-1.25667,226.12,-2.51C223.487,-3.76333,221.56,-5.36667,220.34,-7.32C219.12,-9.27333,218.51,-11.6033,218.51,-14.31L218.51,-14.31C218.51,-17.1367,218.843,-19.5367,219.51,-21.51C220.177,-23.4767,221.153,-25.1267,222.44,-26.46C223.727,-27.8,225.28,-28.8433,227.1,-29.59C228.92,-30.3367,230.997,-30.9067,233.33,-31.3C235.657,-31.6867,238.203,-31.93,240.97,-32.03C243.737,-32.13,246.68,-32.18,249.8,-32.18L249.8,-32.18C254.26,-32.18,257.99,-31.9933,260.99,-31.62C263.983,-31.24,266.43,-30.7667,268.33,-30.2C270.237,-29.6333,271.68,-29.0233,272.66,-28.37C273.633,-27.7167,274.333,-27.1133,274.76,-26.56L274.76,-26.56C274.76,-30.2067,274.603,-33.3167,274.29,-35.89C273.983,-38.4633,273.48,-40.61,272.78,-42.33C272.08,-44.0567,271.177,-45.4333,270.07,-46.46C268.963,-47.4867,267.603,-48.26,265.99,-48.78C264.377,-49.3,262.497,-49.6333,260.35,-49.78C258.203,-49.9267,255.747,-50,252.98,-50L252.98,-50C248.68,-50,245.117,-49.8933,242.29,-49.68C239.457,-49.4733,237.21,-49.06,235.55,-48.44C233.89,-47.82,232.717,-46.9633,232.03,-45.87C231.35,-44.7833,231.01,-43.36,231.01,-41.6L231.01,-41.6L221.63,-41.6C221.63,-44.56,222.16,-47.0667,223.22,-49.12C224.273,-51.1733,226.03,-52.8433,228.49,-54.13C230.95,-55.41,234.18,-56.3433,238.18,-56.93C242.187,-57.5167,247.12,-57.81,252.98,-57.81L252.98,-57.81C258.707,-57.81,263.557,-57.34,267.53,-56.4C271.503,-55.4533,274.717,-53.7933,277.17,-51.42C279.63,-49.04,281.407,-45.84,282.5,-41.82C283.587,-37.8,284.13,-32.7133,284.13,-26.56L284.13,-26.56L284.13,0L274.76,0ZM252.98,-6.25L252.98,-6.25C257.113,-6.25,260.57,-6.44667,263.35,-6.84C266.137,-7.22667,268.377,-7.81,270.07,-8.59C271.763,-9.37667,272.967,-10.3533,273.68,-11.52C274.4,-12.6933,274.76,-14.0633,274.76,-15.63L274.76,-15.63C274.76,-17.19,274.343,-18.5133,273.51,-19.6C272.683,-20.6933,271.3,-21.5833,269.36,-22.27C267.427,-22.95,264.863,-23.4433,261.67,-23.75C258.477,-24.0633,254.537,-24.22,249.85,-24.22L249.85,-24.22C245.163,-24.22,241.38,-24.1367,238.5,-23.97C235.62,-23.81,233.4,-23.4367,231.84,-22.85C230.273,-22.2633,229.223,-21.4,228.69,-20.26C228.15,-19.12,227.88,-17.5767,227.88,-15.63L227.88,-15.63C227.88,-13.6767,228.167,-12.0867,228.74,-10.86C229.307,-9.64,230.47,-8.69,232.23,-8.01C233.983,-7.32333,236.513,-6.86,239.82,-6.62C243.127,-6.37333,247.513,-6.25,252.98,-6.25Z" data-textpath="teva" data-text-anchor="middle" data-font-size="100" data-letterspacing="0" data-side="left" data-offset="0.5" data-dx="0" data-dy="0" data-xmlspace="preserve" data-href="" data-font="Michroma" data-font-src="/Content/clientfonts/michroma.woff" data-font-scale="contain" data-x="0" data-y="0" fill="#7e7e7e"/>
                    </g>
                </svg>
            </g>
        </g>
    </g>
    <path fill="#7e7e7e" opacity="0" stroke="none" d="M-181.688,-14.6118C-179.609,-14.6118,-177.837,-14.5793,-176.372,-14.5144C-174.906,-14.4495,-173.677,-14.3381,-172.684,-14.1804C-171.691,-14.0227,-170.907,-13.8232,-170.332,-13.582C-169.757,-13.3408,-169.321,-12.9836,-169.024,-12.5105C-168.727,-12.0374,-168.537,-11.5642,-168.453,-11.0911C-168.37,-10.6179,-168.328,-10.0752,-168.328,-9.46289C-168.328,-8.79492,-168.37,-8.18726,-168.453,-7.63989C-168.537,-7.09253,-168.736,-6.59619,-169.052,-6.15088C-169.367,-5.70557,-169.831,-5.3252,-170.443,-5.00977C-171.056,-4.69434,-171.891,-4.42529,-172.948,-4.20264C-174.006,-3.97998,-175.319,-3.81763,-176.886,-3.71558C-178.454,-3.61353,-180.352,-3.5625,-182.578,-3.5625C-185.027,-3.5625,-187.054,-3.63208,-188.659,-3.77124C-190.264,-3.9104,-191.54,-4.1748,-192.486,-4.56445C-193.433,-4.9541,-194.096,-5.49683,-194.476,-6.19263C-194.857,-6.88843,-195.047,-7.79297,-195.047,-8.90625L-200.391,-8.90625C-200.391,-7.21777,-200.089,-5.78906,-199.486,-4.62012C-198.883,-3.45117,-197.886,-2.50024,-196.494,-1.76733C-195.103,-1.03442,-193.27,-0.500977,-190.997,-0.166992C-188.724,0.166992,-185.918,0.333984,-182.578,0.333984C-179.906,0.333984,-177.564,0.255127,-175.551,0.0974121C-173.537,-0.0603027,-171.807,-0.301514,-170.36,-0.626221C-168.913,-0.950928,-167.711,-1.37769,-166.756,-1.90649C-165.8,-2.4353,-165.044,-3.06616,-164.487,-3.79907C-163.931,-4.53198,-163.541,-5.37622,-163.318,-6.33179C-163.096,-7.28735,-162.984,-8.36816,-162.984,-9.57422C-162.984,-10.7803,-163.096,-11.8425,-163.318,-12.761C-163.541,-13.6794,-163.926,-14.4773,-164.473,-15.1545C-165.021,-15.8318,-165.749,-16.458,-166.658,-17.0332C-167.567,-17.6084,-168.718,-18.0352,-170.109,-18.3135C-171.501,-18.5918,-173.148,-18.7866,-175.05,-18.8979C-176.951,-19.0093,-179.164,-19.0649,-181.688,-19.0649C-183.766,-19.0649,-185.538,-19.0696,-187.003,-19.0789C-188.469,-19.0881,-189.698,-19.1438,-190.691,-19.2458C-191.684,-19.3479,-192.468,-19.501,-193.043,-19.7051C-193.618,-19.9092,-194.054,-20.2061,-194.351,-20.5957C-194.648,-20.9854,-194.838,-21.4817,-194.922,-22.0847C-195.005,-22.6877,-195.047,-23.3047,-195.047,-23.9355C-195.047,-25.0117,-194.806,-25.856,-194.323,-26.4683C-193.841,-27.0806,-193.043,-27.5352,-191.93,-27.832C-190.816,-28.1289,-189.351,-28.3145,-187.532,-28.3887C-185.714,-28.4629,-183.469,-28.5,-180.797,-28.5C-178.348,-28.5,-176.321,-28.4304,-174.716,-28.2913C-173.111,-28.1521,-171.835,-27.9016,-170.889,-27.5398C-169.942,-27.178,-169.279,-26.6816,-168.899,-26.0508C-168.518,-25.4199,-168.328,-24.6035,-168.328,-23.6016L-162.984,-23.6016C-162.984,-25.2158,-163.253,-26.6074,-163.792,-27.7764C-164.33,-28.9453,-165.271,-29.9148,-166.616,-30.6848C-167.962,-31.4548,-169.78,-32.0254,-172.072,-32.3965C-174.363,-32.7676,-177.271,-32.9531,-180.797,-32.9531C-184.359,-32.9531,-187.384,-32.7954,-189.87,-32.48C-192.356,-32.1646,-194.379,-31.6497,-195.938,-30.9353C-197.496,-30.2209,-198.628,-29.2932,-199.333,-28.1521C-200.038,-27.011,-200.391,-25.6055,-200.391,-23.9355C-200.391,-22.7109,-200.279,-21.5745,-200.057,-20.5261C-199.834,-19.4778,-199.454,-18.5964,-198.916,-17.8821C-198.377,-17.1677,-197.649,-16.5972,-196.731,-16.1704C-195.812,-15.7437,-194.662,-15.4143,-193.28,-15.1824C-191.897,-14.9504,-190.25,-14.7974,-188.339,-14.7231C-186.428,-14.6489,-184.211,-14.6118,-181.688,-14.6118ZM-137.156,0.612305C-140.719,0.612305,-143.743,0.366455,-146.229,-0.125244C-148.716,-0.616943,-150.738,-1.46582,-152.297,-2.67188C-153.855,-3.87793,-154.987,-5.49219,-155.692,-7.51465C-156.397,-9.53711,-156.75,-12.0791,-156.75,-15.1406C-156.75,-18.6475,-156.397,-21.5466,-155.692,-23.8381C-154.987,-26.1296,-153.855,-27.9526,-152.297,-29.3071C-150.738,-30.6616,-148.716,-31.6079,-146.229,-32.146C-143.743,-32.6841,-140.719,-32.9531,-137.156,-32.9531C-134.614,-32.9531,-132.411,-32.7676,-130.546,-32.3965C-128.681,-32.0254,-127.086,-31.4873,-125.759,-30.7822C-124.432,-30.0771,-123.356,-29.2236,-122.531,-28.2217C-121.705,-27.2197,-121.055,-26.1667,-120.582,-25.0627C-120.109,-23.9587,-119.784,-22.6646,-119.608,-21.1802C-119.432,-19.6958,-119.344,-18.1279,-119.344,-16.4766L-119.789,-14.6953L-151.406,-14.6953C-151.406,-12.2461,-151.165,-10.2375,-150.683,-8.66968C-150.2,-7.10181,-149.402,-5.95605,-148.289,-5.23242C-147.176,-4.50879,-145.71,-4.04956,-143.892,-3.85474C-142.073,-3.65991,-139.828,-3.5625,-137.156,-3.5625C-134.707,-3.5625,-132.68,-3.63208,-131.075,-3.77124C-129.47,-3.9104,-128.194,-4.1748,-127.248,-4.56445C-126.302,-4.9541,-125.638,-5.49683,-125.258,-6.19263C-124.878,-6.88843,-124.688,-7.79297,-124.688,-8.90625L-119.344,-8.90625C-119.344,-7.18066,-119.645,-5.71021,-120.248,-4.49487C-120.851,-3.27954,-121.849,-2.29614,-123.24,-1.54468C-124.632,-0.793213,-126.464,-0.24585,-128.737,0.0974121C-131.01,0.440674,-133.816,0.612305,-137.156,0.612305ZM-137.156,-28.5C-138.938,-28.5,-140.529,-28.4629,-141.929,-28.3887C-143.33,-28.3145,-144.555,-28.1521,-145.603,-27.9016C-146.652,-27.6511,-147.547,-27.2893,-148.289,-26.8162C-149.031,-26.343,-149.63,-25.7864,-150.084,-25.1462C-150.539,-24.5061,-150.873,-23.6062,-151.086,-22.4465C-151.3,-21.2869,-151.406,-19.8906,-151.406,-18.2578L-124.688,-18.2578C-124.688,-20.4287,-124.919,-22.1311,-125.383,-23.365C-125.847,-24.5989,-126.58,-25.6147,-127.582,-26.4126C-128.584,-27.2104,-129.874,-27.7578,-131.451,-28.0547C-133.028,-28.3516,-134.93,-28.5,-137.156,-28.5ZM-92.625,-32.9531C-89.0625,-32.9531,-86.0381,-32.6841,-83.5518,-32.146C-81.0654,-31.6079,-79.043,-30.6895,-77.4844,-29.3906C-75.9258,-28.0918,-74.7939,-26.3523,-74.0889,-24.1721C-73.3838,-21.9919,-73.0312,-19.2598,-73.0312,-15.9756C-73.0312,-12.7471,-73.3838,-10.0659,-74.0889,-7.93213C-74.7939,-5.79834,-75.9258,-4.10059,-77.4844,-2.83887C-79.043,-1.57715,-81.0654,-0.686523,-83.5518,-0.166992C-86.0381,0.352539,-89.0625,0.612305,-92.625,0.612305C-95.167,0.612305,-97.2915,0.473145,-98.9985,0.194824C-100.706,-0.0834961,-102.102,-0.431396,-103.187,-0.848877C-104.273,-1.26636,-105.098,-1.71631,-105.664,-2.19873C-106.23,-2.68115,-106.634,-3.13574,-106.875,-3.5625L-106.875,10.6875L-112.219,10.6875L-112.219,-32.0625L-106.875,-32.0625L-106.875,-29.0845C-106.634,-29.4556,-106.23,-29.8684,-105.664,-30.323C-105.098,-30.7776,-104.273,-31.1997,-103.187,-31.5894C-102.102,-31.979,-100.706,-32.3037,-98.9985,-32.5635C-97.2915,-32.8232,-95.167,-32.9531,-92.625,-32.9531ZM-92.625,-28.5C-94.4062,-28.5,-95.9927,-28.4536,-97.3843,-28.3608C-98.7759,-28.2681,-100,-28.0779,-101.058,-27.7903C-102.116,-27.5027,-103.011,-27.0852,-103.744,-26.5378C-104.477,-25.9905,-105.075,-25.2576,-105.539,-24.3391C-106.003,-23.4207,-106.342,-22.2842,-106.555,-20.9297C-106.768,-19.5752,-106.875,-17.9517,-106.875,-16.0591C-106.875,-14.1479,-106.768,-12.5059,-106.555,-11.1328C-106.342,-9.75977,-106.003,-8.61401,-105.539,-7.69556C-105.075,-6.7771,-104.477,-6.04419,-103.744,-5.49683C-103.011,-4.94946,-102.116,-4.53198,-101.058,-4.24438C-100,-3.95679,-98.7759,-3.77124,-97.3843,-3.68774C-95.9927,-3.60425,-94.4062,-3.5625,-92.625,-3.5625C-90.5469,-3.5625,-88.7517,-3.62744,-87.2395,-3.75732C-85.7273,-3.88721,-84.4424,-4.11914,-83.3848,-4.45312C-82.3271,-4.78711,-81.469,-5.25098,-80.8103,-5.84473C-80.1516,-6.43848,-79.6414,-7.19458,-79.2795,-8.11304C-78.9177,-9.03149,-78.6765,-10.1355,-78.5559,-11.425C-78.4353,-12.7146,-78.375,-14.2314,-78.375,-15.9756C-78.375,-17.7197,-78.4353,-19.2412,-78.5559,-20.54C-78.6765,-21.8389,-78.9177,-22.9521,-79.2795,-23.8799C-79.6414,-24.8076,-80.1516,-25.5684,-80.8103,-26.1621C-81.469,-26.7559,-82.3271,-27.229,-83.3848,-27.5815C-84.4424,-27.9341,-85.7273,-28.1753,-87.2395,-28.3052C-88.7517,-28.4351,-90.5469,-28.5,-92.625,-28.5ZM-35.625,-14.25C-35.625,-11.5225,-35.8477,-9.24487,-36.293,-7.41724C-36.7383,-5.5896,-37.4851,-4.12842,-38.5334,-3.03369C-39.5818,-1.93896,-40.9595,-1.15967,-42.6665,-0.695801C-44.3735,-0.231934,-46.4795,0,-48.9844,0C-51.415,0,-53.4561,-0.185547,-55.1074,-0.556641C-56.7588,-0.927734,-58.0947,-1.55859,-59.1152,-2.44922C-60.1357,-3.33984,-60.8687,-4.52734,-61.314,-6.01172C-61.7593,-7.49609,-61.9819,-9.35156,-61.9819,-11.5781L-61.9819,-27.665L-68.5781,-27.665L-68.5781,-32.0625L-61.9819,-32.0625L-61.9819,-40.8296L-56.6382,-40.8296L-56.6382,-32.0625L-36.5156,-32.0625L-36.5156,-27.665L-56.6382,-27.665L-56.6382,-11.5781C-56.6382,-9.79688,-56.5037,-8.42383,-56.2346,-7.45898C-55.9656,-6.49414,-55.5342,-5.78906,-54.9404,-5.34375C-54.3467,-4.89844,-53.5627,-4.63867,-52.5886,-4.56445C-51.6145,-4.49023,-50.4224,-4.45312,-49.0122,-4.45312C-47.8989,-4.45312,-46.9016,-4.47168,-46.0203,-4.50879C-45.1389,-4.5459,-44.3689,-4.66187,-43.7102,-4.85669C-43.0515,-5.05151,-42.4902,-5.34839,-42.0264,-5.74731C-41.5625,-6.14624,-41.1868,-6.70752,-40.8992,-7.43115C-40.6116,-8.15479,-40.4028,-9.0686,-40.2729,-10.1726C-40.1431,-11.2766,-40.0781,-12.6357,-40.0781,-14.25ZM-11.5781,0.612305C-15.1406,0.612305,-18.165,0.366455,-20.6514,-0.125244C-23.1377,-0.616943,-25.1602,-1.46582,-26.7188,-2.67188C-28.2773,-3.87793,-29.4092,-5.49219,-30.1143,-7.51465C-30.8193,-9.53711,-31.1719,-12.0791,-31.1719,-15.1406C-31.1719,-18.6475,-30.8193,-21.5466,-30.1143,-23.8381C-29.4092,-26.1296,-28.2773,-27.9526,-26.7188,-29.3071C-25.1602,-30.6616,-23.1377,-31.6079,-20.6514,-32.146C-18.165,-32.6841,-15.1406,-32.9531,-11.5781,-32.9531C-9.03613,-32.9531,-6.83276,-32.7676,-4.96802,-32.3965C-3.10327,-32.0254,-1.50757,-31.4873,-0.180908,-30.7822C1.14575,-30.0771,2.22192,-29.2236,3.04761,-28.2217C3.87329,-27.2197,4.52271,-26.1667,4.99585,-25.0627C5.46899,-23.9587,5.7937,-22.6646,5.96997,-21.1802C6.14624,-19.6958,6.23438,-18.1279,6.23438,-16.4766L5.78906,-14.6953L-25.8281,-14.6953C-25.8281,-12.2461,-25.5869,-10.2375,-25.1045,-8.66968C-24.6221,-7.10181,-23.8242,-5.95605,-22.7109,-5.23242C-21.5977,-4.50879,-20.1318,-4.04956,-18.3135,-3.85474C-16.4951,-3.65991,-14.25,-3.5625,-11.5781,-3.5625C-9.12891,-3.5625,-7.10181,-3.63208,-5.49683,-3.77124C-3.89185,-3.9104,-2.61621,-4.1748,-1.66992,-4.56445C-0.723633,-4.9541,-0.0603027,-5.49683,0.320068,-6.19263C0.700439,-6.88843,0.890625,-7.79297,0.890625,-8.90625L6.23438,-8.90625C6.23438,-7.18066,5.93286,-5.71021,5.32983,-4.49487C4.72681,-3.27954,3.72949,-2.29614,2.33789,-1.54468C0.946289,-0.793213,-0.885986,-0.24585,-3.15894,0.0974121C-5.43188,0.440674,-8.23828,0.612305,-11.5781,0.612305ZM-11.5781,-28.5C-13.3594,-28.5,-14.9504,-28.4629,-16.3513,-28.3887C-17.7522,-28.3145,-18.9768,-28.1521,-20.0251,-27.9016C-21.0735,-27.6511,-21.9688,-27.2893,-22.7109,-26.8162C-23.4531,-26.343,-24.0515,-25.7864,-24.5061,-25.1462C-24.9607,-24.5061,-25.2947,-23.6062,-25.5081,-22.4465C-25.7214,-21.2869,-25.8281,-19.8906,-25.8281,-18.2578L0.890625,-18.2578C0.890625,-20.4287,0.658691,-22.1311,0.194824,-23.365C-0.269043,-24.5989,-1.00195,-25.6147,-2.00391,-26.4126C-3.00586,-27.2104,-4.29541,-27.7578,-5.87256,-28.0547C-7.44971,-28.3516,-9.35156,-28.5,-11.5781,-28.5ZM47.2031,0L41.8594,0L41.8594,-18.0908C41.8594,-20.0205,41.7341,-21.6487,41.4836,-22.9753C41.2332,-24.302,40.7229,-25.3735,39.9529,-26.1899C39.1829,-27.0063,38.0974,-27.5955,36.6965,-27.9573C35.2957,-28.3191,33.4541,-28.5,31.1719,-28.5C28.667,-28.5,26.6074,-28.2913,24.9932,-27.8738C23.3789,-27.4563,22.1079,-26.8718,21.1802,-26.1204C20.2524,-25.3689,19.6077,-24.4644,19.2458,-23.4067C18.884,-22.3491,18.7031,-21.1709,18.7031,-19.8721L18.7031,0L13.3594,0L13.3594,-32.0625L18.7031,-32.0625L18.7031,-26.9971C18.7217,-27.0527,18.8052,-27.2383,18.9536,-27.5537C19.1021,-27.8691,19.3665,-28.2449,19.7468,-28.6809C20.1272,-29.1169,20.6467,-29.5854,21.3054,-30.0864C21.9641,-30.5874,22.8176,-31.0513,23.866,-31.478C24.9143,-31.9048,26.1807,-32.2573,27.665,-32.5356C29.1494,-32.814,30.9121,-32.9531,32.9531,-32.9531C34.957,-32.9531,36.6965,-32.8279,38.1716,-32.5774C39.6467,-32.3269,40.9084,-31.9558,41.9568,-31.4641C43.0051,-30.9724,43.8586,-30.3601,44.5173,-29.6272C45.176,-28.8943,45.7002,-28.0547,46.0898,-27.1084C46.4053,-27.6094,46.897,-28.1938,47.5649,-28.8618C48.2329,-29.5298,49.1653,-30.1699,50.3621,-30.7822C51.5588,-31.3945,53.0571,-31.9094,54.8569,-32.3269C56.6567,-32.7444,58.8555,-32.9531,61.4531,-32.9531C63.5869,-32.9531,65.4192,-32.8093,66.95,-32.5217C68.4807,-32.2341,69.7749,-31.8074,70.8325,-31.2415C71.8901,-30.6755,72.739,-29.9751,73.3792,-29.1401C74.0193,-28.3052,74.511,-27.3357,74.8542,-26.2317C75.1975,-25.1277,75.4248,-23.8938,75.5361,-22.53C75.6475,-21.1663,75.7031,-19.6865,75.7031,-18.0908L75.7031,0L70.3594,0L70.3594,-18.0908C70.3594,-20.0205,70.2341,-21.6487,69.9836,-22.9753C69.7332,-24.302,69.2229,-25.3735,68.4529,-26.1899C67.6829,-27.0063,66.5974,-27.5955,65.1965,-27.9573C63.7957,-28.3191,61.9541,-28.5,59.6719,-28.5C57.167,-28.5,55.1074,-28.2913,53.4932,-27.8738C51.8789,-27.4563,50.6079,-26.8718,49.6802,-26.1204C48.7524,-25.3689,48.1077,-24.4644,47.7458,-23.4067C47.384,-22.3491,47.2031,-21.1709,47.2031,-19.8721ZM102.422,0.612305C99.8613,0.612305,97.7322,0.440674,96.0344,0.0974121C94.3367,-0.24585,92.9497,-0.616943,91.8735,-1.01587C90.7974,-1.41479,89.981,-2.04565,89.4243,-2.90845C88.8677,-3.77124,88.4502,-4.44385,88.1719,-4.92627L88.1719,0L82.8281,0L82.8281,-42.75L88.1719,-42.75L88.1719,-29.0288C88.4131,-29.4185,88.8167,-29.8406,89.3826,-30.2952C89.9485,-30.7498,90.7742,-31.1765,91.8596,-31.5754C92.9451,-31.9744,94.3413,-32.3037,96.0483,-32.5635C97.7554,-32.8232,99.8799,-32.9531,102.422,-32.9531C105.984,-32.9531,109.009,-32.6841,111.495,-32.146C113.981,-31.6079,116.004,-30.6895,117.562,-29.3906C119.121,-28.0918,120.253,-26.3523,120.958,-24.1721C121.663,-21.9919,122.016,-19.2598,122.016,-15.9756C122.016,-12.7471,121.663,-10.0659,120.958,-7.93213C120.253,-5.79834,119.121,-4.10059,117.562,-2.83887C116.004,-1.57715,113.981,-0.686523,111.495,-0.166992C109.009,0.352539,105.984,0.612305,102.422,0.612305ZM102.422,-3.5625C104.5,-3.5625,106.295,-3.62744,107.807,-3.75732C109.32,-3.88721,110.604,-4.11914,111.662,-4.45312C112.72,-4.78711,113.578,-5.25098,114.237,-5.84473C114.895,-6.43848,115.406,-7.19458,115.767,-8.11304C116.129,-9.03149,116.37,-10.1355,116.491,-11.425C116.612,-12.7146,116.672,-14.2314,116.672,-15.9756C116.672,-17.7197,116.612,-19.2412,116.491,-20.54C116.37,-21.8389,116.129,-22.9475,115.767,-23.866C115.406,-24.7844,114.895,-25.5452,114.237,-26.1482C113.578,-26.7512,112.72,-27.2244,111.662,-27.5676C110.604,-27.9109,109.32,-28.1475,107.807,-28.2773C106.295,-28.4072,104.5,-28.4722,102.422,-28.4722C100.641,-28.4722,99.0542,-28.4304,97.6626,-28.3469C96.271,-28.2634,95.0464,-28.0732,93.9888,-27.7764C92.9312,-27.4795,92.0359,-27.0527,91.303,-26.4961C90.5701,-25.9395,89.9717,-25.1973,89.5078,-24.2695C89.0439,-23.3418,88.7053,-22.1914,88.4919,-20.8184C88.2786,-19.4453,88.1719,-17.8032,88.1719,-15.8921C88.1719,-13.9995,88.2786,-12.3806,88.4919,-11.0354C88.7053,-9.69019,89.0439,-8.56299,89.5078,-7.65381C89.9717,-6.74463,90.5701,-6.01636,91.303,-5.46899C92.0359,-4.92163,92.9312,-4.50879,93.9888,-4.23047C95.0464,-3.95215,96.271,-3.77124,97.6626,-3.68774C99.0542,-3.60425,100.641,-3.5625,102.422,-3.5625ZM155.859,-21.6255C155.859,-22.9614,155.762,-24.0701,155.567,-24.9514C155.372,-25.8328,154.913,-26.5378,154.189,-27.0667C153.466,-27.5955,152.394,-27.9666,150.975,-28.1799C149.555,-28.3933,147.621,-28.5,145.172,-28.5C142.778,-28.5,140.83,-28.2913,139.327,-27.8738C137.824,-27.4563,136.646,-26.8672,135.792,-26.1064C134.939,-25.3457,134.359,-24.4365,134.053,-23.3789C133.747,-22.3213,133.594,-21.1431,133.594,-19.8442L133.594,0L128.25,0L128.25,-32.0625L133.594,-32.0625L133.594,-26.9692C133.779,-27.5444,134.123,-28.1799,134.624,-28.8757C135.125,-29.5715,135.885,-30.2209,136.906,-30.824C137.926,-31.427,139.248,-31.9326,140.872,-32.3408C142.495,-32.749,144.522,-32.9531,146.953,-32.9531C149.736,-32.9531,152,-32.7073,153.744,-32.2156C155.488,-31.7239,156.847,-31.0002,157.822,-30.0447C158.796,-29.0891,159.454,-27.9062,159.798,-26.4961C160.141,-25.0859,160.312,-23.4624,160.312,-21.6255ZM182.578,0.612305C179.016,0.612305,175.991,0.366455,173.505,-0.125244C171.019,-0.616943,168.996,-1.46582,167.438,-2.67188C165.879,-3.87793,164.747,-5.49219,164.042,-7.51465C163.337,-9.53711,162.984,-12.0791,162.984,-15.1406C162.984,-18.6475,163.337,-21.5466,164.042,-23.8381C164.747,-26.1296,165.879,-27.9526,167.438,-29.3071C168.996,-30.6616,171.019,-31.6079,173.505,-32.146C175.991,-32.6841,179.016,-32.9531,182.578,-32.9531C185.12,-32.9531,187.323,-32.7676,189.188,-32.3965C191.053,-32.0254,192.649,-31.4873,193.975,-30.7822C195.302,-30.0771,196.378,-29.2236,197.204,-28.2217C198.03,-27.2197,198.679,-26.1667,199.152,-25.0627C199.625,-23.9587,199.95,-22.6646,200.126,-21.1802C200.302,-19.6958,200.391,-18.1279,200.391,-16.4766L199.945,-14.6953L168.328,-14.6953C168.328,-12.2461,168.569,-10.2375,169.052,-8.66968C169.534,-7.10181,170.332,-5.95605,171.445,-5.23242C172.559,-4.50879,174.024,-4.04956,175.843,-3.85474C177.661,-3.65991,179.906,-3.5625,182.578,-3.5625C185.027,-3.5625,187.054,-3.63208,188.659,-3.77124C190.264,-3.9104,191.54,-4.1748,192.486,-4.56445C193.433,-4.9541,194.096,-5.49683,194.476,-6.19263C194.857,-6.88843,195.047,-7.79297,195.047,-8.90625L200.391,-8.90625C200.391,-7.18066,200.089,-5.71021,199.486,-4.49487C198.883,-3.27954,197.886,-2.29614,196.494,-1.54468C195.103,-0.793213,193.27,-0.24585,190.997,0.0974121C188.724,0.440674,185.918,0.612305,182.578,0.612305ZM182.578,-28.5C180.797,-28.5,179.206,-28.4629,177.805,-28.3887C176.404,-28.3145,175.179,-28.1521,174.131,-27.9016C173.083,-27.6511,172.188,-27.2893,171.445,-26.8162C170.703,-26.343,170.105,-25.7864,169.65,-25.1462C169.196,-24.5061,168.862,-23.6062,168.648,-22.4465C168.435,-21.2869,168.328,-19.8906,168.328,-18.2578L195.047,-18.2578C195.047,-20.4287,194.815,-22.1311,194.351,-23.365C193.887,-24.5989,193.154,-25.6147,192.152,-26.4126C191.15,-27.2104,189.861,-27.7578,188.284,-28.0547C186.707,-28.3516,184.805,-28.5,182.578,-28.5ZM-93.9609,84.6562C-93.9609,83.543,-93.9331,82.4343,-93.8774,81.3303C-93.8218,80.2263,-93.6965,79.1687,-93.5017,78.1575C-93.3069,77.1462,-93.0193,76.1953,-92.6389,75.3047C-92.2585,74.4141,-91.739,73.6301,-91.0803,72.9529C-90.4216,72.2756,-89.6006,71.7144,-88.6172,71.269C-87.6338,70.8237,-86.4463,70.5361,-85.0547,70.4062L-56.5547,67.7344C-55.6641,67.6602,-54.8848,67.5303,-54.2168,67.3447C-53.5488,67.1592,-52.9968,66.802,-52.5608,66.2732C-52.1248,65.7444,-51.7954,64.9697,-51.5728,63.9492C-51.3501,62.9287,-51.2388,61.5278,-51.2388,59.7466C-51.2388,58.2622,-51.3501,57.0098,-51.5728,55.9893C-51.7954,54.9688,-52.1665,54.1245,-52.686,53.4565C-53.2056,52.7886,-53.906,52.2783,-54.7874,51.9258C-55.6687,51.5732,-56.7681,51.3135,-58.0854,51.1465C-59.4028,50.9795,-60.9614,50.8821,-62.7612,50.8542C-64.561,50.8264,-66.6484,50.8125,-69.0234,50.8125C-72.2891,50.8125,-75.0398,50.8728,-77.2756,50.9934C-79.5115,51.114,-81.3577,51.332,-82.8142,51.6475C-84.2708,51.9629,-85.3887,52.3896,-86.168,52.9277C-86.9473,53.4658,-87.5178,54.1663,-87.8796,55.0291C-88.2415,55.8918,-88.4548,56.9263,-88.5198,58.1323C-88.5847,59.3384,-88.6172,60.7578,-88.6172,62.3906L-93.9609,62.3906C-93.9609,59.7188,-93.7151,57.469,-93.2234,55.6414C-92.7317,53.8137,-92.0081,52.3062,-91.0525,51.1187C-90.0969,49.9312,-88.9141,49.0127,-87.5039,48.3633C-86.0938,47.7139,-84.4656,47.2407,-82.6194,46.9438C-80.7732,46.647,-78.7136,46.4753,-76.4407,46.429C-74.1677,46.3826,-71.6953,46.3594,-69.0234,46.3594C-66.3516,46.3594,-63.9255,46.4011,-61.7454,46.4846C-59.5652,46.5681,-57.6169,46.7583,-55.9006,47.0552C-54.1843,47.3521,-52.6953,47.7881,-51.4336,48.3633C-50.1719,48.9385,-49.1282,49.7224,-48.3025,50.7151C-47.4768,51.7078,-46.8645,52.937,-46.4656,54.4028C-46.0667,55.8687,-45.8672,57.6406,-45.8672,59.7188C-45.8672,61.5,-45.9971,63.1189,-46.2568,64.5754C-46.5166,66.032,-46.9805,67.2983,-47.6484,68.3745C-48.3164,69.4507,-49.2256,70.3135,-50.376,70.9629C-51.5264,71.6123,-52.9922,72.0205,-54.7734,72.1875L-83.2734,74.8594C-84.6279,74.9893,-85.667,75.2397,-86.3906,75.6108C-87.1143,75.9819,-87.6431,76.571,-87.9771,77.3782C-88.311,78.1853,-88.5012,79.2476,-88.5476,80.5649C-88.594,81.8823,-88.6172,83.543,-88.6172,85.5469L-46.7578,85.5469L-46.7578,90L-93.9609,90ZM-8.43311,46.3594C-5.16748,46.3594,-2.41675,46.5588,-0.180908,46.9578C2.05493,47.3567,3.89648,47.9597,5.34375,48.7668C6.79102,49.574,7.9043,50.5898,8.68359,51.8145C9.46289,53.0391,10.0334,54.4771,10.3953,56.1284C10.7571,57.7798,10.9705,59.6445,11.0354,61.7227C11.1003,63.8008,11.1328,66.1016,11.1328,68.625C11.1328,71.1484,11.1003,73.4492,11.0354,75.5273C10.9705,77.6055,10.7571,79.4702,10.3953,81.1216C10.0334,82.7729,9.46289,84.2109,8.68359,85.4355C7.9043,86.6602,6.79102,87.676,5.34375,88.4832C3.89648,89.2903,2.05493,89.8933,-0.180908,90.2922C-2.41675,90.6912,-5.16748,90.8906,-8.43311,90.8906L-19.1484,90.8906C-22.4141,90.8906,-25.1648,90.6912,-27.4006,90.2922C-29.6365,89.8933,-31.478,89.2903,-32.9253,88.4832C-34.3726,87.676,-35.4905,86.6602,-36.2791,85.4355C-37.0676,84.2109,-37.6428,82.7729,-38.0046,81.1216C-38.3665,79.4702,-38.5752,77.6055,-38.6309,75.5273C-38.6865,73.4492,-38.7144,71.1484,-38.7144,68.625C-38.7144,66.1016,-38.6865,63.8008,-38.6309,61.7227C-38.5752,59.6445,-38.3665,57.7798,-38.0046,56.1284C-37.6428,54.4771,-37.0676,53.0391,-36.2791,51.8145C-35.4905,50.5898,-34.3726,49.574,-32.9253,48.7668C-31.478,47.9597,-29.6365,47.3567,-27.4006,46.9578C-25.1648,46.5588,-22.4141,46.3594,-19.1484,46.3594ZM-8.43311,86.4375C-6.05811,86.4375,-4.06348,86.3679,-2.44922,86.2288C-0.834961,86.0896,0.500977,85.8066,1.55859,85.3799C2.61621,84.9531,3.43262,84.3408,4.00781,83.543C4.58301,82.7451,5.00049,81.6875,5.26025,80.3701C5.52002,79.0527,5.6731,77.4338,5.71948,75.5134C5.76587,73.593,5.78906,71.2969,5.78906,68.625C5.78906,65.9531,5.76587,63.657,5.71948,61.7366C5.6731,59.8162,5.52002,58.1973,5.26025,56.8799C5.00049,55.5625,4.58301,54.5049,4.00781,53.707C3.43262,52.9092,2.62085,52.2969,1.57251,51.8701C0.52417,51.4434,-0.811768,51.1604,-2.4353,51.0212C-4.05884,50.8821,-6.05811,50.8125,-8.43311,50.8125L-19.1484,50.8125C-21.5234,50.8125,-23.5227,50.8821,-25.1462,51.0212C-26.7698,51.1604,-28.1104,51.4434,-29.168,51.8701C-30.2256,52.2969,-31.042,52.9092,-31.6172,53.707C-32.1924,54.5049,-32.6099,55.5625,-32.8696,56.8799C-33.1294,58.1973,-33.2778,59.8162,-33.3149,61.7366C-33.3521,63.657,-33.3706,65.9531,-33.3706,68.625C-33.3706,71.2969,-33.3474,73.593,-33.301,75.5134C-33.2546,77.4338,-33.1016,79.0527,-32.8418,80.3701C-32.582,81.6875,-32.1692,82.7451,-31.6033,83.543C-31.0374,84.3408,-30.2256,84.9531,-29.168,85.3799C-28.1104,85.8066,-26.7698,86.0896,-25.1462,86.2288C-23.5227,86.3679,-21.5234,86.4375,-19.1484,86.4375ZM31.6172,47.25L38.7422,47.25L38.7422,90L33.3984,90L33.3984,51.7031L20.9297,62.3906L18.2578,58.8281ZM70.8047,86.4375C73.6807,86.4375,76.116,86.3911,78.1106,86.2983C80.1052,86.2056,81.7612,85.9875,83.0786,85.6443C84.396,85.301,85.4258,84.7861,86.168,84.0996C86.9102,83.4131,87.4622,82.4761,87.824,81.2886C88.1858,80.1011,88.4084,78.6213,88.4919,76.8494C88.5754,75.0774,88.6172,72.9297,88.6172,70.4062C87.1699,71.2783,85.2959,71.9417,82.9951,72.3962C80.6943,72.8508,77.8184,73.0781,74.3672,73.0781L65.4331,73.0781C61.4253,73.0781,58.1504,72.7998,55.6084,72.2432C53.0664,71.6865,51.0764,70.8516,49.6384,69.7383C48.2004,68.625,47.2124,67.2334,46.6743,65.5635C46.1362,63.8936,45.8672,61.9453,45.8672,59.7188C45.8672,57.4922,46.1362,55.5439,46.6743,53.874C47.2124,52.2041,48.2004,50.8125,49.6384,49.6992C51.0764,48.5859,53.0664,47.751,55.6084,47.1943C58.1504,46.6377,61.4253,46.3594,65.4331,46.3594L74.3672,46.3594C77.6328,46.3594,80.3835,46.5588,82.6194,46.9578C84.8552,47.3567,86.7014,47.9597,88.158,48.7668C89.6145,49.574,90.7324,50.5898,91.5117,51.8145C92.291,53.0391,92.8616,54.4771,93.2234,56.1284C93.5852,57.7798,93.7986,59.6445,93.8635,61.7227C93.9285,63.8008,93.9609,66.1016,93.9609,68.625C93.9609,71.2969,93.9238,73.7043,93.8496,75.8474C93.7754,77.9905,93.5249,79.8831,93.0981,81.5251C92.6714,83.1672,91.9941,84.582,91.0664,85.7695C90.1387,86.957,88.8167,87.9265,87.1003,88.678C85.384,89.4294,83.2039,89.9861,80.5598,90.3479C77.9158,90.7097,74.6641,90.8906,70.8047,90.8906C67.5391,90.8906,64.7002,90.77,62.2881,90.5288C59.876,90.2876,57.8118,89.9258,56.0955,89.4434C54.3792,88.9609,52.9736,88.3672,51.8789,87.6621C50.7842,86.957,49.926,86.1406,49.3044,85.2129C48.6829,84.2852,48.2561,83.2554,48.0242,82.1235C47.7922,80.9917,47.6763,79.7578,47.6763,78.4219L52.1016,78.4219C52.1016,79.1641,52.1572,79.8784,52.2686,80.5649C52.3799,81.2515,52.6257,81.8916,53.0061,82.4854C53.3865,83.0791,53.9756,83.6172,54.7734,84.0996C55.5713,84.582,56.6614,84.9995,58.0437,85.3521C59.426,85.7046,61.1562,85.9736,63.2344,86.1592C65.3125,86.3447,67.8359,86.4375,70.8047,86.4375ZM74.3672,68.625C77.2803,68.625,79.6646,68.5601,81.52,68.4302C83.3755,68.3003,84.8274,67.9941,85.8757,67.5117C86.9241,67.0293,87.6431,66.3149,88.0327,65.3687C88.4224,64.4224,88.6172,63.1328,88.6172,61.5C88.6172,59.2734,88.4224,57.4644,88.0327,56.0728C87.6431,54.6812,86.9241,53.5957,85.8757,52.8164C84.8274,52.0371,83.3755,51.5083,81.52,51.23C79.6646,50.9517,77.2803,50.8125,74.3672,50.8125L65.4331,50.8125C63.355,50.8125,61.5598,50.8682,60.0476,50.9795C58.5354,51.0908,57.2551,51.2764,56.2068,51.5361C55.1584,51.7959,54.3049,52.1484,53.6462,52.5938C52.9875,53.0391,52.4773,53.5911,52.1155,54.2498C51.7537,54.9084,51.5125,55.6877,51.3918,56.5876C51.2712,57.4875,51.2109,58.5312,51.2109,59.7188C51.2109,60.9062,51.2759,61.95,51.4058,62.8499C51.5356,63.7498,51.7815,64.5291,52.1433,65.1877C52.5051,65.8464,53.0107,66.3984,53.6602,66.8438C54.3096,67.2891,55.1631,67.6416,56.2207,67.9014C57.2783,68.1611,58.5586,68.3467,60.0615,68.458C61.5645,68.5693,63.355,68.625,65.4331,68.625Z" transform="translate(300,292.615)" style="animation: 19s linear infinite both a5_o;"/>
</svg>
