<svg xmlns="http://www.w3.org/2000/svg" viewBox="0 0 600 600"><style>
@keyframes svg-neotevaa0_t { 0% { transform: translate(297.8px,-9.6px) scale(.7,.7); } 45.455% { transform: translate(297.8px,-9.6px) scale(.7,.7); animation-timing-function: cubic-bezier(.4,0,.6,1); } 72.727% { transform: translate(297.8px,321.1px) scale(.7,.7); } 100% { transform: translate(297.8px,321.1px) scale(.7,.7); } }
@keyframes svg-neotevaa0_o { 0% { opacity: 1; } 45.455% { opacity: 1; } 50% { opacity: 0; } 54.545% { opacity: 1; } 59.091% { opacity: 0; } 63.636% { opacity: 1; } 68.182% { opacity: 0; } 72.727% { opacity: 1; } 90.909% { opacity: 1; } 100% { opacity: 0; } }
@keyframes svg-neotevaa1_t { 0% { transform: translate(97.3px,655.7px) scale(.7,.7); } 45.455% { transform: translate(97.3px,655.7px) scale(.7,.7); animation-timing-function: cubic-bezier(.4,0,.6,1); } 72.727% { transform: translate(97.3px,321.1px) scale(.7,.7); } 100% { transform: translate(97.3px,321.1px) scale(.7,.7); } }
@keyframes svg-neotevaa1_o { 0% { opacity: 1; } 45.455% { opacity: 1; } 50% { opacity: 0; } 54.545% { opacity: 1; } 59.091% { opacity: 0; } 63.636% { opacity: 1; } 68.182% { opacity: 0; } 72.727% { opacity: 1; } 90.909% { opacity: 1; } 100% { opacity: 0; } }
@keyframes svg-neotevaa2_t { 0% { transform: translate(-40px,290.6px) scale(.1,.1) translate(88.4px,88.4px); animation-timing-function: cubic-bezier(.4,0,.6,1); } 27.273% { transform: translate(269.7px,290.6px) scale(.1,.1) translate(88.4px,88.4px); } 100% { transform: translate(269.7px,290.6px) scale(.1,.1) translate(88.4px,88.4px); } }
@keyframes svg-neotevaa2_o { 0% { opacity: 1; animation-timing-function: cubic-bezier(.4,0,.6,1); } 4.545% { opacity: 0; animation-timing-function: cubic-bezier(.4,0,.6,1); } 9.091% { opacity: 1; animation-timing-function: cubic-bezier(.4,0,.6,1); } 13.636% { opacity: 0; animation-timing-function: cubic-bezier(.4,0,.6,1); } 18.182% { opacity: 1; animation-timing-function: cubic-bezier(.4,0,.6,1); } 22.727% { opacity: 0; animation-timing-function: cubic-bezier(.4,0,.6,1); } 27.273% { opacity: 1; } 50% { opacity: 0; } 54.545% { opacity: 1; } 59.091% { opacity: 0; } 63.636% { opacity: 1; } 68.182% { opacity: 0; } 72.727% { opacity: 1; } 90.909% { opacity: 1; } 100% { opacity: 0; } }
@keyframes svg-neotevaa3_t { 0% { transform: translate(586.3px,420.8px) rotate(-136deg) skewX(0deg) scale(1.2,1.8); } 27.273% { transform: translate(586.3px,420.8px) rotate(-136deg) skewX(0deg) scale(1.2,1.8); animation-timing-function: cubic-bezier(.4,0,.6,1); } 45.455% { transform: translate(452.7px,420.8px) rotate(-136deg) skewX(0deg) scale(1.2,1.8); } 100% { transform: translate(452.7px,420.8px) rotate(-136deg) skewX(0deg) scale(1.2,1.8); } }
@keyframes svg-neotevaa3_o { 0% { opacity: 1; } 27.273% { opacity: 1; animation-timing-function: cubic-bezier(.4,0,.6,1); } 31.818% { opacity: 0; animation-timing-function: cubic-bezier(.4,0,.6,1); } 36.364% { opacity: 1; animation-timing-function: cubic-bezier(.4,0,.6,1); } 40.909% { opacity: 0; animation-timing-function: cubic-bezier(.4,0,.6,1); } 45.455% { opacity: 1; } 50% { opacity: 0; } 54.545% { opacity: 1; } 59.091% { opacity: 0; } 63.636% { opacity: 1; } 68.182% { opacity: 0; } 72.727% { opacity: 1; } 90.909% { opacity: 1; } 100% { opacity: 0; } }
@keyframes svg-neotevaa4_t { 0% { transform: translate(13.7px,180.3px) rotate(44deg) skewX(0deg) scale(1.2,1.8); } 27.273% { transform: translate(13.7px,180.3px) rotate(44deg) skewX(0deg) scale(1.2,1.8); animation-timing-function: cubic-bezier(.4,0,.6,1); } 45.455% { transform: translate(148.8px,180.3px) rotate(44deg) skewX(0deg) scale(1.2,1.8); } 100% { transform: translate(148.8px,180.3px) rotate(44deg) skewX(0deg) scale(1.2,1.8); } }
@keyframes svg-neotevaa4_o { 0% { opacity: 1; } 27.273% { opacity: 1; animation-timing-function: cubic-bezier(.4,0,.6,1); } 31.818% { opacity: 0; animation-timing-function: cubic-bezier(.4,0,.6,1); } 36.364% { opacity: 1; animation-timing-function: cubic-bezier(.4,0,.6,1); } 40.909% { opacity: 0; animation-timing-function: cubic-bezier(.4,0,.6,1); } 45.455% { opacity: 1; } 50% { opacity: 0; } 54.545% { opacity: 1; } 59.091% { opacity: 0; } 63.636% { opacity: 1; } 68.182% { opacity: 0; } 72.727% { opacity: 1; } 90.909% { opacity: 1; } 100% { opacity: 0; } }
</style><path d="M53.1-25h7.8c0 4.8-0.4 8.8-1.1 12c-0.8 3.2-2.1 5.8-4 7.7c-1.8 1.9-4.2 3.3-7.2 4.1c-3 .8-6.7 1.2-11.1 1.2c-4.3 0-7.8-0.3-10.7-1c-2.9-0.6-5.3-1.7-7.1-3.3c-1.8-1.6-3-3.6-3.8-6.3c-0.8-2.6-1.2-5.8-1.2-9.7v-28.2h-11.6v-7.8h11.6v-15.3h9.4v15.3h35.3v7.8h-35.3v28.2c0 3.1 .2 5.5 .7 7.2c.5 1.7 1.2 2.9 2.3 3.7c1 .8 2.4 1.3 4.1 1.4c1.7 .1 3.8 .2 6.2 .2c2 0 3.8 0 5.3-0.1c1.5-0.1 2.9-0.3 4.1-0.6c1.1-0.4 2.1-0.9 2.9-1.6c.8-0.7 1.5-1.7 2-2.9c.5-1.3 .9-2.9 1.1-4.8c.2-2 .3-4.4 .3-7.2Zm50 26.1c-6.2 0-11.5-0.5-15.9-1.3c-4.4-0.9-7.9-2.4-10.6-4.5c-2.8-2.1-4.8-4.9-6-8.5c-1.2-3.5-1.8-8-1.8-13.4c0-6.1 .6-11.2 1.8-15.2c1.2-4 3.2-7.2 6-9.6c2.7-2.4 6.2-4.1 10.6-5c4.4-0.9 9.7-1.4 15.9-1.4c4.5 0 8.3 .3 11.6 1c3.3 .6 6.1 1.6 8.4 2.8c2.3 1.2 4.2 2.7 5.7 4.5c1.4 1.7 2.6 3.6 3.4 5.5c.8 2 1.4 4.2 1.7 6.8c.3 2.6 .5 5.4 .5 8.3l-0.8 3.1h-55.5c0 4.3 .4 7.8 1.3 10.6c.8 2.7 2.2 4.8 4.2 6c1.9 1.3 4.5 2.1 7.7 2.4c3.2 .4 7.1 .6 11.8 .6c4.3 0 7.9-0.2 10.7-0.4c2.8-0.3 5.1-0.7 6.7-1.4c1.7-0.7 2.8-1.6 3.5-2.9c.7-1.2 1-2.8 1-4.7h9.4c0 3-0.6 5.6-1.6 7.7c-1.1 2.1-2.8 3.9-5.3 5.2c-2.4 1.3-5.6 2.3-9.6 2.9c-4 .6-8.9 .9-14.8 .9Zm0-51.1c-3.1 0-5.9 .1-8.3 .2c-2.5 .1-4.7 .4-6.5 .9c-1.8 .4-3.4 1-4.7 1.9c-1.3 .8-2.4 1.8-3.2 2.9c-0.8 1.1-1.3 2.7-1.7 4.7c-0.4 2.1-0.6 4.5-0.6 7.4h46.9c0-3.8-0.4-6.8-1.2-9c-0.8-2.2-2.1-3.9-3.9-5.3c-1.7-1.4-4-2.4-6.8-2.9c-2.7-0.5-6.1-0.8-10-0.8Zm37.5-6.2l29.7 56.2h12.5l29.7-56.2h-10.9l-25 50l-25-50h-11Zm134.2 56.2v-7.7c-0.1 .4-0.9 1.4-2.2 2.9c-1 1.2-2.3 2.2-3.9 3.1c-1.7 .9-3.8 1.6-6.6 2.1c-2.7 .5-6.3 .8-10.7 .8c-5.9 0-10.9-0.3-15.1-0.9c-4.1-0.6-7.5-1.6-10.2-2.8c-2.6-1.3-4.5-2.9-5.8-4.8c-1.2-2-1.8-4.3-1.8-7c0-2.8 .3-5.2 1-7.2c.7-2 1.7-3.6 2.9-5c1.3-1.3 2.9-2.3 4.7-3.1c1.8-0.7 3.9-1.3 6.2-1.7c2.4-0.4 4.9-0.6 7.7-0.7c2.7-0.1 5.7-0.2 8.8-0.2c4.5 0 8.2 .2 11.2 .6c3 .4 5.4 .8 7.3 1.4c1.9 .6 3.4 1.2 4.4 1.8c.9 .7 1.6 1.3 2.1 1.8c0-3.6-0.2-6.7-0.5-9.3c-0.3-2.6-0.8-4.7-1.5-6.4c-0.7-1.8-1.6-3.1-2.7-4.2c-1.1-1-2.5-1.8-4.1-2.3c-1.6-0.5-3.5-0.8-5.6-1c-2.2-0.1-4.7-0.2-7.4-0.2c-4.3 0-7.9 .1-10.7 .3c-2.8 .2-5.1 .6-6.7 1.3c-1.7 .6-2.9 1.4-3.6 2.5c-0.6 1.1-1 2.5-1 4.3h-9.4c0-3 .6-5.5 1.6-7.5c1.1-2.1 2.8-3.7 5.3-5c2.5-1.3 5.7-2.2 9.7-2.8c4-0.6 8.9-0.9 14.8-0.9c5.7 0 10.6 .5 14.5 1.4c4 .9 7.2 2.6 9.7 5c2.4 2.4 4.2 5.6 5.3 9.6c1.1 4 1.6 9.1 1.6 15.2v26.6h-9.3Zm-21.8-6.2c4.1 0 7.6-0.2 10.4-0.6c2.7-0.4 5-1 6.7-1.8c1.7-0.8 2.9-1.8 3.6-2.9c.7-1.2 1.1-2.6 1.1-4.1c0-1.6-0.5-2.9-1.3-4c-0.8-1.1-2.2-2-4.1-2.7c-2-0.6-4.5-1.1-7.7-1.4c-3.2-0.4-7.2-0.5-11.8-0.5c-4.7 0-8.5 .1-11.4 .2c-2.9 .2-5.1 .6-6.7 1.1c-1.5 .6-2.6 1.5-3.1 2.6c-0.5 1.2-0.8 2.7-0.8 4.7c0 1.9 .3 3.5 .8 4.7c.6 1.3 1.8 2.2 3.5 2.9c1.8 .7 4.3 1.1 7.6 1.4c3.3 .2 7.7 .3 13.2 .3Z" data-textpath="teva" data-text-anchor="middle" data-font-size="100" data-letterspacing="0" data-side="left" data-offset="0.5" data-dx="0" data-dy="0" data-xmlspace="preserve" data-font="Michroma" data-font-src="/Content/clientfonts/michroma.woff" data-font-scale="contain" data-x="0" data-y="0" fill="#7e7e7e" transform="translate(297.8,-9.6) scale(.703,.703)" style="animation: 11s linear infinite both svg-neotevaa0_t, 11s linear infinite both svg-neotevaa0_o;"/><path d="M71.9 0h-9.4v-31.2c0-3.5-0.3-6.5-0.8-8.9c-0.5-2.4-1.5-4.3-3.1-5.7c-1.6-1.5-3.8-2.6-6.7-3.2c-2.8-0.7-6.6-1-11.3-1c-5.1 0-9.2 .4-12.5 1.1c-3.2 .8-5.7 1.8-7.6 3.2c-1.9 1.4-3.1 3-3.8 4.9c-0.7 2-1.1 4.1-1.1 6.4v34.4h-9.4v-56.2h9.4v9.3c.7-1.6 1.7-2.9 2.9-4.1c1.3-1.2 2.8-2.1 4.3-3c1.6-0.8 3.4-1.4 5.2-1.9c1.9-0.5 3.7-0.9 5.6-1.2c1.8-0.3 3.6-0.5 5.4-0.6c1.7-0.1 3.3-0.1 4.7-0.1c4.2 0 7.8 .3 10.8 .8c3 .5 5.6 1.3 7.7 2.3c2.1 1 3.8 2.2 5 3.7c1.3 1.5 2.3 3.3 3 5.2c.7 2 1.2 4.2 1.4 6.6c.2 2.4 .3 5.1 .3 8v31.2Zm45.3 1.1c-6.2 0-11.5-0.5-15.9-1.3c-4.3-0.9-7.9-2.4-10.6-4.5c-2.8-2.1-4.7-4.9-6-8.5c-1.2-3.5-1.8-8-1.8-13.4c0-6.1 .6-11.2 1.8-15.2c1.3-4 3.2-7.2 6-9.6c2.7-2.4 6.3-4.1 10.6-5c4.4-0.9 9.7-1.4 15.9-1.4c4.5 0 8.4 .3 11.6 1c3.3 .6 6.1 1.6 8.4 2.8c2.4 1.2 4.2 2.7 5.7 4.5c1.4 1.7 2.6 3.6 3.4 5.5c.8 2 1.4 4.2 1.7 6.8c.3 2.6 .5 5.4 .5 8.3l-0.8 3.1h-55.5c0 4.3 .5 7.8 1.3 10.6c.9 2.7 2.3 4.8 4.2 6c2 1.3 4.5 2.1 7.7 2.4c3.2 .4 7.1 .6 11.8 .6c4.3 0 7.9-0.2 10.7-0.4c2.8-0.3 5.1-0.7 6.7-1.4c1.7-0.7 2.8-1.6 3.5-2.9c.7-1.2 1-2.8 1-4.7h9.4c0 3-0.5 5.6-1.6 7.7c-1.1 2.1-2.8 3.9-5.2 5.2c-2.5 1.3-5.7 2.3-9.7 2.9c-4 .6-8.9 .9-14.8 .9Zm0-51.1c-3.1 0-5.9 .1-8.3 .2c-2.5 .1-4.6 .4-6.5 .9c-1.8 .4-3.4 1-4.7 1.9c-1.3 .8-2.3 1.8-3.1 2.9c-0.8 1.1-1.4 2.7-1.8 4.7c-0.4 2.1-0.6 4.5-0.6 7.4h46.9c0-3.8-0.4-6.8-1.2-9c-0.8-2.2-2.1-3.9-3.9-5.3c-1.7-1.4-4-2.4-6.8-2.9c-2.7-0.5-6.1-0.8-10-0.8Zm42.2 21.5c0-5.8 .6-10.5 1.9-14.3c1.2-3.8 3.2-6.8 5.9-9c2.8-2.2 6.3-3.8 10.7-4.7c4.3-0.9 9.7-1.3 15.9-1.3c6.2 0 11.6 .4 15.9 1.3c4.4 .9 7.9 2.5 10.7 4.7c2.7 2.2 4.7 5.2 5.9 9c1.3 3.8 1.9 8.5 1.9 14.3c0 5.7-0.6 10.5-1.9 14.3c-1.2 3.8-3.2 6.9-5.9 9.1c-2.8 2.3-6.3 3.9-10.7 4.8c-4.3 .9-9.7 1.4-15.9 1.4c-6.2 0-11.6-0.5-15.9-1.4c-4.4-0.9-7.9-2.5-10.7-4.8c-2.7-2.2-4.7-5.3-5.9-9.1c-1.3-3.8-1.9-8.6-1.9-14.3Zm9.4 0c0 3.1 .1 5.8 .3 8.1c.3 2.4 .7 4.3 1.3 6c.7 1.7 1.6 3 2.7 4c1.1 1.1 2.6 1.9 4.5 2.5c1.8 .7 4.1 1.1 6.7 1.3c2.7 .2 5.8 .3 9.5 .3c3.1 0 5.9 0 8.4-0.2c2.4-0.1 4.6-0.5 6.4-1c1.9-0.5 3.4-1.2 4.7-2.2c1.3-1 2.4-2.3 3.2-3.9c.8-1.7 1.4-3.7 1.7-6.2c.4-2.4 .6-5.3 .6-8.7c0-3.4-0.2-6.2-0.6-8.6c-0.3-2.3-0.9-4.3-1.7-5.9c-0.8-1.6-1.9-2.9-3.2-3.8c-1.3-0.9-2.8-1.6-4.7-2.1c-1.8-0.5-4-0.8-6.4-0.9c-2.5-0.1-5.3-0.2-8.4-0.2c-3.1 0-5.9 .1-8.4 .2c-2.4 .1-4.6 .4-6.4 .9c-1.9 .5-3.4 1.2-4.7 2.1c-1.3 .9-2.4 2.2-3.2 3.8c-0.8 1.6-1.4 3.6-1.7 5.9c-0.4 2.4-0.6 5.2-0.6 8.6Z" data-textpath="neo" data-text-anchor="middle" data-font-size="100" data-letterspacing="0" data-side="left" data-offset="0.5" data-dx="0" data-dy="0" data-xmlspace="preserve" data-font="Michroma" data-font-src="/Content/clientfonts/michroma.woff" data-font-scale="contain" data-x="0" data-y="0" fill="#7e7e7e" transform="translate(97.3,655.7) scale(.703,.703)" style="animation: 11s linear infinite both svg-neotevaa1_t, 11s linear infinite both svg-neotevaa1_o;"/><path fill="#e78200" d="M88.4 0c0 48.8-39.6 88.4-88.4 88.4c-48.8 0-88.4-39.6-88.4-88.4c0-48.8 39.6-88.4 88.4-88.4c48.8 0 88.4 39.6 88.4 88.4Z" transform="translate(-40,290.6) scale(.13,.13) translate(88.4,88.4)" style="animation: 11s linear infinite both svg-neotevaa2_t, 11s linear infinite both svg-neotevaa2_o;"/><path d="M15.9 56.5l-6.1 .6c1.7 18.1 16.1 32.5 34.1 34.1l.6-6c-15.2-1.4-27.2-13.5-28.6-28.7Z" fill="#e78200" transform="translate(586.3,420.8) rotate(-136) skewX(0) scale(1.194,1.837)" style="animation: 11s linear infinite both svg-neotevaa3_t, 11s linear infinite both svg-neotevaa3_o;"/><path d="M15.9 56.5l-6.1 .6c1.7 18.1 16.1 32.5 34.1 34.1l.6-6c-15.2-1.4-27.2-13.5-28.6-28.7Z" fill="#e78200" transform="translate(13.7,180.3) rotate(44) skewX(0) scale(1.194,1.837)" style="animation: 11s linear infinite both svg-neotevaa4_t, 11s linear infinite both svg-neotevaa4_o;"/></svg>